<svg id="Group_516" data-name="Group 516" xmlns="http://www.w3.org/2000/svg" viewBox="0 0 100 100"><defs><clipPath id="clip-path"><circle id="Ellipse_55" data-name="Ellipse 55" cx="50" cy="50" r="50" fill="#fff" stroke="#707070" stroke-width="1"/></clipPath></defs><circle id="Ellipse_54" data-name="Ellipse 54" cx="50" cy="50" r="50" fill="#f7e7e5"/><g id="Mask_Group_28" data-name="Mask Group 28" clip-path="url(#clip-path)"><g id="Group_522" data-name="Group 522" transform="translate(14 18.543)"><g id="Group_523" data-name="Group 523"><path id="Path_780" data-name="Path 780" d="M100.711 71.217l.414-.706c.983 1.359 2.448 1.458 4.283.852 2.064-.676 3.7-1.919 3.454-.338s-2.287 6.079-3.753 7.276a64.732 64.732 0 00-5.826 5.357l-.637-.637.046-3.791s.43-.407.929-.837a5.882 5.882 0 011.428-1.036c.476-.092 1.773-.192 1.773-.192l2.879-3.024S104.4 74 103.973 74a20.084 20.084 0 01-2.541-1.105c-.338-.092-.967-1.243-.967-1.243z" transform="translate(-41.466 -42.535)" fill="#be0000"/><path id="Path_781" data-name="Path 781" d="M109.6 113.641c.284 1.3.192 1.535-.1 1.535s-.284.576-.284 1.635-1.251 3.929-1.919 6.523-2.879 2.587-3.646 2.011-.86-2.111-.86-3.262.668-1.051.86-2.2 0-1.826.192-3.27 1.727-1.243 2.879-2.011c.99-.66 1.274-1.9 1.7-2.533a.274.274 0 01.438-.016 3.765 3.765 0 01.737 1.589" transform="translate(-43.208 -60.06)" fill="#be0000"/><path id="Path_784" data-name="Path 784" d="M86.3 69.9l.069-.568.668-.069.069-1.12.606-.8h.637l.192-.921-.015-.729.975.084.422-.668.537.415h1.857s1.282 1.082 1.4 1.213c.1.1.507.66.706.952l-.1.008-.476.483v.829l1.105.046-.246.438s.63 1.151.967 1.243a20.084 20.084 0 002.541 1.105c.43 0 1.727.138 1.727.138L97.072 75s-1.3.1-1.773.192a5.872 5.872 0 00-1.428 1.036l-.492-.061-.545-.445-1.312.737h-1.473l-.8-.929-1.2-.107-.046-.76-.9-.092v-1.183l-.545-.161-.322-.637-1.274-.323.123-.8 1.182-.1-.031-.959z" transform="translate(-35.716 -40.369)" fill="#be0000"/><path id="Path_786" data-name="Path 786" d="M100.878 69.517l.522-.054a1.276 1.276 0 01.1.177 4.017 4.017 0 00.323.537l-.414.706-1.105-.046v-.829l.476-.483z" transform="translate(-42.162 -42.201)" fill="#be0000"/><path id="Path_787" data-name="Path 787" d="M97.525 65.467l-.525.054c-.2-.292-.607-.852-.707-.952-.123-.13-1.4-1.213-1.4-1.213h-1.858l-.537-.414-.422.668-.975-.085-.015-.845.414-.929.069-1.151h.637a6.847 6.847 0 00.852-.645 15.843 15.843 0 001.113 1.9c.759 1.1 2.1 1.742 3.07 3.139a4.96 4.96 0 01.284.476" transform="translate(-38.288 -38.205)" fill="#be0000"/><path id="Path_789" data-name="Path 789" d="M88.866 82.608l1.2.107.8.929h1.473l1.312-.737.545.445.492.061c-.5.43-.929.837-.929.837l-.046 3.791.637.637c-1.151 1.22-2 2.341-2.026 3.008a1.268 1.268 0 000 .169l-1.727-1.228v-.476L86.9 88.134v-1.051l1.152-1.783-.913-2.379.714-.722.545.031.161.353z" transform="translate(-36.529 -47.555)" fill="#be0000"/><path id="Path_790" data-name="Path 790" d="M80.558 99.62c-.253-.5-.653-1.3-.714-1.428a2.508 2.508 0 00-.622-.529l-.191-1.963-.008-.031.66.046.768-1.021.069-.414h-.42l-.023-.468.154.015.353-.315-.223-.576-.2-.491.023-.008h3.408l3.692 2.019v.476l1.727 1.228a20.756 20.756 0 00.768 5.726l-1.681.767-.483-.046-.476.43a5.682 5.682 0 01-1.443-.284c-.33-.192-1.289.284-1.581.384l.207-.483a9.154 9.154 0 01-.107-.952c0-.292-.483-.767-.483-.767l-.814.108-.146-.253-2.011-.767-.2-.4" transform="translate(-33.217 -51.857)" fill="#be0000"/><path id="Path_792" data-name="Path 792" d="M80.665 60.352l.016.729-.192.919h-.637l-.607.8-.069 1.12-.668.069-.069.568-.376-.253-.545-.576.161-1.312-.261-.092-.123.223-.959.161.384.384v.767l-1.09 1.12-1.343-.445-.8.476-.637.476-.614-.315-1.566-.161-.476-.767-.645.13-.414.576-1.09.061-.635-1.11-.061-.1.13-.483-.479-.194.031-1.021-.767-.031.514-.737-.292-.322.483-.414-.1-.353.483-.576.223-.737.9.1-.092-4.022-.008-.522H69.4v-2.08l11.674.092a9.316 9.316 0 01.407 1.236 13.906 13.906 0 001.144 3.047 6.847 6.847 0 01-.852.645h-.637l-.069 1.151-.414.929z" transform="translate(-27.852 -35.032)" fill="#be0000"/><path id="Path_793" data-name="Path 793" d="M83.07 44.58l-11.67-.092v-8.213l-.161-.161-.223-.545.284-.483-.031-.668.614-.852c2.057.814 3.53 1.243 4.067 1.028a5.222 5.222 0 013.454-.437 1.187 1.187 0 001.128-.108c.177.76.407 1.811.423 2.1a.3.3 0 00.069.161l-.13.253.038 1.458c-.7.031-1.036-.108-1.236-.545-.238-.53-1.443-1.873-.821-.384a20.336 20.336 0 001.825 3.159 33.515 33.515 0 012.37 4.329" transform="translate(-29.85 -27.112)" fill="#de7165"/><path id="Path_795" data-name="Path 795" d="M87.887 111.792c.338.338-.1 1.773-.1 1.773l-.53.1-.138 1.051a14.049 14.049 0 00-.959-1.389c-.146-.092.238-.959.238-.959l-.092-.483-.721-.046-.63-.337-.384-.476.529-.476v-.629l.484-.138-.384-.483v-.959l.43-.476-.384-.66.814-.108s.483.476.483.768a9.137 9.137 0 00.107.951l-.207.484c-.284.1.046 1.389.1 1.635s1.005.522 1.343.86" transform="translate(-35.549 -58.019)" fill="#be0000"/><path id="Path_796" data-name="Path 796" d="M79.715 77.59l-.368.369-1.09.092-.545.323-.384-.353-.99.292-1.151-1.09-.284.292-.545-.192-.322.284-1.16-.907-.023-.023.031-.606-.829-.223v-.637l-1.09-.9-.476-.767-1.251-.322.062-1.022 1.09-.061.414-.576.645-.13.476.767 1.566.161.614.315.637-.476.8-.476 1.343.445 1.09-1.12v-.767l-.384-.384.959-.161.123-.223.261.092-.164 1.314.545.576.376.254-.061.514.031.959-1.182.1-.123.8 1.274.322.322.637.545.161v1.182l.9.092.046.76-.307-.023-.161-.353-.545-.031z" transform="translate(-29.104 -42.223)" fill="#be0000"/><path id="Path_798" data-name="Path 798" d="M80.387 88.665l-.507.23-.315.23.092-1.7.161-.161v-.514l1.374-1.243-.514-.069v-1.271l.99-.292.384.353.545-.323 1.09-.092.368-.369.914 2.379-1.151 1.781v1.051H80.41z" transform="translate(-33.445 -48.078)" fill="#be0000"/><path id="Path_799" data-name="Path 799" d="M90.511 108.736l-1.681.767-.483-.046-.476.43a5.674 5.674 0 01-1.443-.284c-.33-.192-1.29.284-1.581.384s.046 1.389.1 1.635 1.006.522 1.343.86-.1 1.773-.1 1.773l-.529.1-.139 1.051a13.95 13.95 0 00-.959-1.389c-.145-.092.238-.959.238-.959l-.092-.483-.722-.046-.63-.338-2.586.967.031.537a1.37 1.37 0 00.192.453 19.089 19.089 0 012.111.606c.606.284.192.929.322 1.374a2.082 2.082 0 01-.161 1.12l.192 1.051-.637.645.092.921-1.343 1.074c.138.023.223.046.223.046l.514 1.535.061 2.111.192 1.028 1.021.069c0-.967-.576-1.42 1.174-2.026 1.665-.568 1.205-2.847.492-4.7a.719.719 0 01-.031-.384c.268-1.413 4.635-3.032 5.634-5.081.545-1.136.13-2.809-.338-4.8" transform="translate(-33.952 -58.709)" fill="#be0000"/><path id="Path_801" data-name="Path 801" d="M77.665 106.25l.384.66-.43.476v.959l.384.483-.484.138v.629l-.529.476.384.476-2.586.967.031.537-1.535.453.031.767a1.763 1.763 0 00-.959.384 4.678 4.678 0 00-.867.944l-.821-.023c.069-.1.13-.208.061-.223-.13-.031-.9-.092-1.028-.123a9.175 9.175 0 00-1.4-.069 4.82 4.82 0 00-.438.061l-1.135-1.122-.192-3.5 1.965-.1.046-2.065.483.292h.77l.145.476.622.338.914-.046.238-.292.338.63.913.33.668.576h.53l.238-.576-.191-.476-.622.092-.622-.284.184-2.111-.43-.576.813-.813 1.773-.162.2.4 2.011.767z" transform="translate(-27.968 -57.067)" fill="#be0000"/><path id="Path_802" data-name="Path 802" d="M71.573 129.639c.139.023.223.046.223.046l.514 1.535.061 2.111-.637-.122-.445 1.343 1.021.507.253-.7 1.021.069a3.012 3.012 0 01-.844 1.957c-1.051 1.3-3.454 5.995-6.762 6.378s-6.954 1.4-7-.86a13.837 13.837 0 00-1.988-5.5l.867-.775s-.069.767.507.9 1.474.384 1.858-.192a2.224 2.224 0 00.384-1.6v-2.556l.767 1.021-.13 1.151h1.028s1.021-.706 1.021-.9a6.568 6.568 0 01.253-.96c1.151.707 2.433.829 2.564.253s-.192-.829.445-.829a1.111 1.111 0 001.021-.829c0-.192.576-1.282 1.22-1.343a8.03 8.03 0 001.136-.253 2.317 2.317 0 01.46-.069 6.522 6.522 0 011.182.207m-1.949 8.3c.322-.253.192-.959-.322-1.466a.48.48 0 00-.829.123l-.622.561-.207.721a1.222 1.222 0 00.4.668c.315.261 1.259-.345 1.581-.606" transform="translate(-23.956 -67.409)" fill="#be0000"/><path id="Path_803" data-name="Path 803" d="M74.248 119.838a4.7 4.7 0 01.867-.944 1.763 1.763 0 01.959-.384l-.031-.767 1.535-.453a1.37 1.37 0 00.192.453 19.09 19.09 0 012.111.606c.606.284.192.929.322 1.374a2.09 2.09 0 01-.161 1.121l.192 1.051-.637.645.092.921-1.343 1.075a6.486 6.486 0 00-1.182-.208 2.321 2.321 0 00-.461.069l-.246-.583-.545-.223-.507-.031-.353-.284v-.867l-.445.13-.23-.706h-.284l-.514-.322-.476-.86.192-.676s.069-.077.13-.161z" transform="translate(-30.729 -62.305)" fill="#be0000"/><path id="Path_804" data-name="Path 804" d="M82.74 136.07l.192 1.028-.253.7-1.021-.507.445-1.343z" transform="translate(-34.325 -70.147)" fill="#be0000"/><path id="Path_805" data-name="Path 805" d="M56.215 83.36a3.348 3.348 0 00.038-.445c0-.13-.031-.384-.031-.384l.668-.706.706-.031.637.576 1.313.353.606.092.253-.729.483.031.253.123.767-.507h.414l.069.154.284.038.353-.545.606.192.384.161.729-.046 1.159.906.322-.284.545.192.284-.292 1.151 1.09v1.274l.514.069-1.374 1.243v.515l-.161.161-.092 1.7-.215.154-.43.821.038.223.292 1.566.008.031.192 1.964a2.513 2.513 0 01.622.53c.061.13.46.929.714 1.428l-1.773.161-.814.813.43.576-.184 2.111.621.284.622-.092.192.476-.238.576h-.529l-.668-.576-.914-.33-.338-.629-.238.292-.914.046-.621-.337-.146-.476h-.764l-.483-.292-1.627.337-.092-1.151-.292-.622-.092-2.111-1.251-.1v-.284h-.959l-.385 1.05-1.581.054s-.484-.63-.576-.767-.484-1.489-.484-1.489l-4.137.353a7.245 7.245 0 00-.176-.353l.368-.016.031-.737.622-.453.338.23.315-.522.515-.031.1.576.253.031 1.4-1.312-.061-1.343s.637-.576.637-.668.161-.292.161-.292l.9-.668a10.009 10.009 0 01.031-1.7 9.279 9.279 0 01.514-1.727.992.992 0 00.184-.514" transform="translate(-20.978 -47.21)" fill="#be0000"/><path id="Path_806" data-name="Path 806" d="M79.835 93.816l-.391-.046-.253.384-.7-.046-.038-.223.43-.821.215-.153.315-.231.507-.23.2.492.223.576-.353.315z" transform="translate(-32.978 -51.863)" fill="#be0000"/><path id="Path_807" data-name="Path 807" d="M80.308 95.242l-.069.414-.767 1.021-.66-.046-.292-1.566.7.046.253-.384.391.046.023.468z" transform="translate(-33.006 -52.821)" fill="#be0000"/><path id="Path_808" data-name="Path 808" d="M72.307 125.623l.246.583a8.03 8.03 0 01-1.136.253c-.645.061-1.22 1.151-1.22 1.343a1.112 1.112 0 01-1.021.829c-.637 0-.323.253-.445.829s-1.413.453-2.564-.253a6.577 6.577 0 00-.253.959c0 .192-1.021.9-1.021.9h-1.029l.13-1.151-.767-1.021v-2.886s.514.706.829-.061a16.786 16.786 0 00.13-3.9l2.172-.384.384.506 1.09-.576 1.443.031c-.061.085-.13.161-.13.161l-.192.676.476.86.514.322h.284l.23.706.445-.13v.867l.353.284.507.031z" transform="translate(-26.577 -64.114)" fill="#be0000"/><path id="Path_809" data-name="Path 809" d="M77.026 141.429c.514.507.644 1.213.322 1.466s-1.267.867-1.581.606a1.221 1.221 0 01-.4-.668l.207-.722.623-.56a.48.48 0 01.829-.123" transform="translate(-31.681 -72.367)" fill="#be0000"/><path id="Path_810" data-name="Path 810" d="M66.366 77.212l-.031.606.023.023-.729.046-.384-.161-.606-.192-.353.545-.286-.038-.07-.154h-.414l-.767.507-.253-.123-.483-.031-.253.729-.606-.092-1.312-.353-.637-.576-.706.031-.668.706s.031.253.031.384a3.348 3.348 0 01-.038.445l-1.789-.092-.384.86c-.207-.214-.46-.468-.545-.576-.154-.192-.952-.959-1.051-1.082a15.561 15.561 0 01-.322-1.857 9.675 9.675 0 011.028-1.059.268.268 0 00.1-.276l.507.054.476-.353s.1.422.384.353a10.734 10.734 0 002.18-1.021 1.629 1.629 0 00-.161-.445l1.343-.1 1.5-1.182-.069-.483 1.12-.023.637 1.112-.061 1.021 1.251.322.476.767 1.09.9v.637z" transform="translate(-22.586 -43.364)" fill="#be0000"/><path id="Path_813" data-name="Path 813" d="M60.682 120.491c.169-.031.33-.054.438-.061a9.176 9.176 0 011.4.069c.13.031.9.092 1.028.123.069.016.008.123-.061.223l-1.443-.031-1.09.576-.384-.507-2.173.384a16.791 16.791 0 01-.13 3.9c-.315.767-.829.061-.829.061v5.442a2.224 2.224 0 01-.384 1.6c-.384.576-1.282.322-1.857.192s-.507-.9-.507-.9l-.867.775a28.375 28.375 0 00-.845-1.412c-.867-1.343-.675-4.8-1.005-5.611-.3-.729-2.448-2.732-2.51-5.135.621-.207 1.274-.529 1.389-.414s.576.507.576.507h4.505l.322.322a5.709 5.709 0 001.435.292c.322-.069 1.858-.161 2.111-.23.169-.038.545-.107.875-.161" transform="translate(-20.794 -63.334)" fill="#be0000"/><path id="Path_814" data-name="Path 814" d="M45.5 34.339c.284-.268.752-.706.752-.706l-.031-.99 1.274-.837-.046-1.021c.983.4 3.6.606 3.869 1.3a2.014 2.014 0 001.873 1.29c.959.053.959.529 1.581.675s1.151-.238 1.105-1.2c0 0-.284-2.786 2.924-1.4.813.353 1.573.676 2.264.944l-.614.852.031.668-.282.486.223.545.161.161V45.4h-1.029l.008.522c-1.674-.922-7.123-3.877-7.569-3.962a2.355 2.355 0 00-1.12.361 4.438 4.438 0 01-.8.407c-.192 0-.691-.653-.944-.714s-1.251-.2-1.251-.2a.1.1 0 01-.016-.023 5.208 5.208 0 00-.56-.929c-.092-.038-1.343-.514-1.343-.514l-.607-1.635.414-.314-.03-2.909s-.507-.836-.445-.929a1.831 1.831 0 01.207-.223" transform="translate(-19.037 -25.943)" fill="#be0000"/><path id="Path_815" data-name="Path 815" d="M61.448 58.68l-.486.576.1.352-.486.416.294.32-.518.736.767.032-.019 1.022.48.192-.128.479.057.1-1.119.026.071.479-1.5 1.184-1.344.1a1.633 1.633 0 01.16.442 10.912 10.912 0 01-2.181 1.023c-.282.07-.384-.352-.384-.352l-.474.352-.505-.057a5.67 5.67 0 00-.365-.966c-.032-.263-.7-.646-.991-1.03s0-.384 0-.384h1.509a2.7 2.7 0 01-.55-1.017c-.057-.448-.16-1.439-.16-1.669s-.633-.442-.633-.442l-.294.083a.074.074 0 00-.032-.052c-.1-.128-.115-.371-.32-.486l-.172-1.024 1.97-2.2.192-2.967.192-.825-.435-.326-.352-2.379a2.34 2.34 0 011.119-.365c.447.083 5.9 3.038 7.573 3.959l.09 4.023-.9-.1z" transform="translate(-21.95 -34.042)" fill="#be0000"/><path id="Path_816" data-name="Path 816" d="M61.37 105.634l-.046 2.065-1.965.1.192 3.5 1.128 1.128c-.33.054-.706.123-.875.161-.253.07-1.788.161-2.111.231a5.714 5.714 0 01-1.436-.292l-.322-.323h-4.504s-.453-.384-.576-.507-.767.208-1.389.414a3.671 3.671 0 01.061-.86c.53-2.786 2.111-4.321 1.481-6.961a16.3 16.3 0 00-1.113-3.385l4.138-.353s.384 1.344.483 1.489.576.767.576.767l1.581-.053.384-1.051h.959v.283l1.251.1.092 2.111.292.621.092 1.152z" transform="translate(-20.791 -55.269)" fill="#be0000"/><path id="Path_817" data-name="Path 817" d="M50.22 92.658l-.369-.253-1.013.791a14.298 14.298 0 00-.614-1l.253-.622.384.223.384-.322-.706-.414-.092-.637 1.09.123.092-.7.414.637h.445l.261-.284.061.315.414-.031.162-.959.1-.929-.576-.223.031-.576.545-.414-.13-.476-1.09.061-.084-.952 1.075-.008.737.092 1.09.322.253-.929.384-.86 1.788.092a.992.992 0 01-.184.514 9.279 9.279 0 00-.514 1.727 10.009 10.009 0 00-.031 1.7l-.9.668s-.161.192-.161.292-.637.668-.637.668l.061 1.343-1.4 1.312-.253-.031-.1-.576-.514.031-.315.514z" transform="translate(-20.271 -48.579)" fill="#be0000"/><path id="Path_818" data-name="Path 818" d="M48.161 79.129l-1.826.023h-.2l-1.22-.215a1.764 1.764 0 00-1.5-2l.414-.637v-.829s1.182-1.182 1.5-1.151.706.445.8.445.645-.031.675-.414a9.175 9.175 0 01.545-1.566l.451-.185.031-.737a.326.326 0 00.414-.284 5.115 5.115 0 01.545-1.313c.1-.038.8-.1.8-.353a1.831 1.831 0 00-.315-.836c-.115-.138-.13-.545-.23-.744l.292-.085s.637.223.637.445.1 1.22.161 1.665a2.728 2.728 0 00.545 1.021h-1.5s-.284 0 0 .384.959.768.99 1.029a5.382 5.382 0 01.361.967.268.268 0 01-.1.276 9.675 9.675 0 00-1.031 1.056 15.587 15.587 0 00.322 1.858c.1.122.9.89 1.051 1.082.085.108.337.361.545.576l-.253.929-1.09-.322-.737-.092z" transform="translate(-18.251 -41.689)" fill="#be0000"/><path id="Path_819" data-name="Path 819" d="M45.127 53.012l-.192.821-.192 2.97-1.965 2.2.169 1.021a.409.409 0 00-.154-.053c-.353-.069-.8.568-1.021.568a10.394 10.394 0 00-1.8-.284c-.507.061-.959.545-1.374.545s-.9-.675-1.213-.514a1.622 1.622 0 01-1.535-.192 2.909 2.909 0 00-1.666-.223l-1.021 1.052a3.594 3.594 0 00-.061.836l-.79-.545h-.522l-1.013-.576-.046-.622-.914-.43-.069-1.221 3.285-.268.622-.959-.038-2.855 1.573-.268A25.611 25.611 0 0137.5 52.1c.361-.192 2.51-1.5 3.838-2.326a.091.091 0 00.015.023s.99.13 1.251.2.752.714.944.714a4.418 4.418 0 00.8-.407l.353 2.379z" transform="translate(-12.507 -33.924)" fill="#be0000"/><path id="Path_820" data-name="Path 820" d="M49.8 87.911l.13.476-.545.414-.031.576.576.223-.1.929-.161.959-.414.031-.055-.319-.261.284h-.445l-.414-.637-.092.7-1.09-.123.092.637.706.414-.384.323-.384-.223-.253.621a28.565 28.565 0 00-1.811-2.364c-.767-.914 0-1.151.292-2.448a2.75 2.75 0 00.077-.315l1.5.023.069-1.051 1.826-.023.085.952z" transform="translate(-18.717 -49.581)" fill="#be0000"/><path id="Path_821" data-name="Path 821" d="M45.559 69.447c0 .256-.7.314-.8.352a5.366 5.366 0 00-.544 1.318.324.324 0 01-.416.281l-.026.736-.447.192a9.339 9.339 0 00-.544 1.567c-.032.384-.576.416-.678.416s-.474-.416-.8-.447-1.5 1.151-1.5 1.151v.831l-.416.634a2.9 2.9 0 00-.94.013c-2.4.326-1.439-.973-2.348-1.446a4.344 4.344 0 00-2.264-.282l.019-2.916a1.025 1.025 0 01.454-.192c.192 0 .384-.608.576-.9a2.526 2.526 0 00-.038-1.471 1.265 1.265 0 01-.026-.224 3.843 3.843 0 01.064-.838l1.023-1.049a2.9 2.9 0 011.663.224 1.626 1.626 0 001.535.192c.314-.16.8.512 1.216.512s.864-.48 1.369-.544a10.152 10.152 0 011.8.281c.224 0 .672-.633 1.023-.563a.354.354 0 01.154.052c.2.115.224.358.32.486a.072.072 0 01.032.052c.1.2.115.607.23.742a1.886 1.886 0 01.314.838" transform="translate(-14.222 -41.226)" fill="#be0000"/><path id="Path_822" data-name="Path 822" d="M50.665 98.29l-.622.453-.031.737-.368.016a9.5 9.5 0 00-.361-.668l1.013-.791z" transform="translate(-20.716 -54.212)" fill="#be0000"/><path id="Path_823" data-name="Path 823" d="M27.237 42.843l-.967.169v-.767l-1.151-.483-1.152-1.006-5.373-4.076-.223-.13-3.783-2.264-.008-.63-.015-1.1 1.535-.906 1.535.092 1.344-1.3.675.054.046-.63-.483-.192v-.913l2.687-.139v-.192l.337-.238-.813-.722.092-1.826a6.285 6.285 0 00-.767-.668c1.443-.322 3.262-1.4 5.664-1.773a83.54 83.54 0 015.419-.652l-.484.7L31.3 24.4s.245.767.046 1.051c-.184.292-.813.675-.813.913a3.761 3.761 0 00.576 1.681c.292.192 1.005.53 1.005.53l.468 2.3a1.831 1.831 0 00-.207.223c-.061.092.445.929.445.929l.031 2.909-.415.314.607 1.635s1.251.476 1.343.514a5.209 5.209 0 01.56.929c-1.327.821-3.477 2.134-3.837 2.326a25.527 25.527 0 00-2.3 1.919z" transform="translate(-6.122 -22.481)" fill="#be0000"/><path id="Path_824" data-name="Path 824" d="M46.119 27.274l.046 1.021-1.274.836.031.99s-.468.438-.752.707l-.468-2.3s-.714-.34-1.002-.528a3.77 3.77 0 01-.576-1.681c0-.238.63-.622.814-.914.2-.284-.046-1.051-.046-1.051l.046-1.151.483-.7c.53-.046.921-.069 1.105-.069a1.252 1.252 0 01.514.084c.369.154.622.576.583 1.689-.046 1.581-.476 2.586.384 3.024a.757.757 0 00.115.046" transform="translate(-17.705 -22.431)" fill="#be0000"/><path id="Path_825" data-name="Path 825" d="M47.308 86.905l-.069 1.051-1.5-.023a4.784 4.784 0 00.153-1.243l1.221.215z" transform="translate(-19.225 -49.442)" fill="#be0000"/><path id="Path_830" data-name="Path 830" d="M20.77 57.079l-.791.069-1.443.952-.668-.092-.53.722-.767.722-.722.767-.714.33.238.576-.192.767-.008.1-.668.192-.384-.576-.767.576-.722-.1-.046-.576-.622-.192.284-.714-.813-.676-.284.43-1.971-.138.015-.376.039-.683-.622-.292.138-.813-.368-.507.56.031v-.338l-.042-.476h.48l.384.476.384-.53s4.989.054 5.127-.092.1-.722.1-.722l-.292-.238-.959-8.926 1.65-.031.223.13 5.373 4.076 1.151 1.006 1.151.483v.767l.966-.163.039 2.855-.622.959z" transform="translate(-3.523 -32.633)" fill="#be0000"/><path id="Path_831" data-name="Path 831" d="M30.765 70.944l.046-.13.53-.338.767-.284.054-.675h.522l.791.545a1.02 1.02 0 00.023.223 2.555 2.555 0 01.038 1.474c-.192.283-.384.89-.576.89a1.014 1.014 0 00-.453.192l-.023 2.917a6.173 6.173 0 00-.99.138l.038-3.354-.43-.675-.476-.476z" transform="translate(-12.874 -42.223)" fill="#be0000"/><path id="Path_833" data-name="Path 833" d="M27.709 67.451l-.054.675-.767.284-.529.338-.046.13-.836-.031.023-.338h-1.39l-1.443.476-.039 1.374-.821-.414-1.06.284-.33-.813-.345.1.008-.1.192-.767-.238-.576.714-.33.722-.767.767-.722.53-.721.668.092 1.443-.952.791-.069.069 1.22.914.43.046.622z" transform="translate(-8.421 -40.158)" fill="#be0000"/><path id="Path_834" data-name="Path 834" d="M30.58 72.878l.43.675-.039 3.354a5 5 0 00-.537.122l-.476-.89L29.9 73.6l-.284-.092.046-.967-.284-.238.023-.376.836.031-.137.442z" transform="translate(-12.351 -43.236)" fill="#be0000"/><path id="Path_835" data-name="Path 835" d="M27 71.681l-.023.376.284.238-.046.967.284.092.053 2.54.476.89a12 12 0 00-2.348.883s-.614-.107-1.458-.169l-.031-.783-.53-.821.483-.621.53-.814-.292-1.151-.23-.115.038-1.374 1.443-.476h1.389z" transform="translate(-9.946 -42.991)" fill="#be0000"/><path id="Path_836" data-name="Path 836" d="M19.39 29.425l-.338.238v.192l-2.686.138v.914l.483.192-.046.629-.676-.053-1.343 1.3-1.535-.092-1.535.906.015 1.105H7.785c1.013-.729 2.948-1.835 3.017-2.541.1-.914-.092-3.362 2.448-4.459 1.451-.637.814-2.356 1.3-2.4s1.151.868 2.686.814a3.458 3.458 0 00.668-.092 6.285 6.285 0 01.767.668l-.095 1.816z" transform="translate(-3.272 -23.715)" fill="#be0000"/><path id="Path_837" data-name="Path 837" d="M17.879 72.8l.345-.1.33.813 1.059-.283.821.414.231.115.292 1.151-.53.814-.483.621.529.821.031.783a7.406 7.406 0 00-4.014.552 1.146 1.146 0 01-.69.169l.123-1.32-1.105-.814.384-.522-.338-.438.1-.023.43-.123-.1-.622.384-.145v-.622l-.576-.33.238-.821.722.1.767-.576.384.576z" transform="translate(-6.228 -43.442)" fill="#be0000"/><path id="Path_838" data-name="Path 838" d="M8.716 42.8l3.784 2.26-1.65.031.959 8.926.292.238s.046.576-.1.722-5.127.092-5.127.092l-.384.531-.384-.476h-.483l.046.476v.338l-.56-.031-1.021-1.414h-.53l-.238-.668-2.1.315a4.293 4.293 0 00-.008-2.671A17.023 17.023 0 01.6 49.028h3.872v-1.681l1.2-.53-.238-2.64 3.308-.046z" transform="translate(-.251 -30.991)" fill="#be0000"/><path id="Path_840" data-name="Path 840" d="M13.719 79.054l-.123 1.32c-1.144-.038-2.809-1.22-4.022-2.279l1.213-1.144.031-.483h.782l.2 1.005.284.192.384-.576.292.169-.1.023.337.438-.384.522z" transform="translate(-4.024 -45.145)" fill="#be0000"/><path id="Path_841" data-name="Path 841" d="M11.057 72.613v.622l-.384.145.1.622-.43.123-.292-.169-.384.576-.284-.192-.2-1.005H8.4l.015-.284-.43-.868-.96-.721-1.241 1.205-.384-.078a4.2 4.2 0 00-1.573-1.957l.422-.514.767-.046.146-1.059 2.118.207-.015.376 1.973.139.284-.43.813.675-.283.714.621.192.046.576-.238.821z" transform="translate(-1.609 -42.012)" fill="#be0000"/><path id="Path_842" data-name="Path 842" d="M8.7 42.34l.023 1.336-3.308.046.238 2.64-1.2.53v1.681H.58a1.924 1.924 0 01.322-1.4c.483-.86 2.978-4.36 3.27-4.935a1.977 1.977 0 01.576-.53h3.945z" transform="translate(-.235 -30.535)" fill="#be0000"/><path id="Path_843" data-name="Path 843" d="M9.542 75.11l-.031.483L8.3 76.737a7.546 7.546 0 01-1.52-1.627c-.061-.192-.123-.445-.238-.744l.384.077 1.243-1.205.959.722.43.867z" transform="translate(-2.749 -43.787)" fill="#be0000"/><path id="Path_844" data-name="Path 844" d="M4.859 63.9l.368.507-.138.813.622.292-.038.683-2.119-.207-2.794.179a3.633 3.633 0 01-.292-.567l1.067.061.046-.438.675.054.814.33.576-.33-.43-.1-.529-.284h-.668l-1.151.046-.683-.122A4.45 4.45 0 010 63.834a8.2 8.2 0 00.967-1.7l2.1-.314.238.668h.53z" transform="translate(0 -38.989)" fill="#be0000"/><path id="Path_845" data-name="Path 845" d="M3.78 67.447l-.576.33-.814-.33-.675-.054-.046.438L.6 67.77a4.5 4.5 0 01-.284-.783L1 67.11l1.151-.046h.669l.529.284z" transform="translate(-.134 -41.16)" fill="#be0000"/><path id="Path_846" data-name="Path 846" d="M4.1 69.013l-.146 1.059-.767.046-.422.514c-.077-.061-.161-.115-.253-.177a4 4 0 01-1.201-1.265z" transform="translate(-.551 -42.012)" fill="#be0000"/></g></g></g></svg>