<svg id="Group_515" data-name="Group 515" xmlns="http://www.w3.org/2000/svg" viewBox="0 0 100 100"><defs><clipPath id="clip-path"><circle id="Ellipse_55" data-name="Ellipse 55" cx="50" cy="50" r="50" fill="#fff" stroke="#707070" stroke-width="1"/></clipPath></defs><circle id="Ellipse_54" data-name="Ellipse 54" cx="50" cy="50" r="50" fill="#f7e7e5"/><g id="Mask_Group_28" data-name="Mask Group 28" clip-path="url(#clip-path)"><g id="Group_519" data-name="Group 519" transform="translate(18.271 -5.624)"><g id="Group_520" data-name="Group 520"><path id="Path_709" data-name="Path 709" d="M85.8 176.264a20.127 20.127 0 00-2.653.621c-.751.111-1.447.687-1.911.464a2.69 2.69 0 00-2.022.111l-.928-.408.222 1.1-.519.056-.2.046a.422.422 0 00-.139-.278 2.188 2.188 0 00-2.551-.056c-.7.52-.872.752-1.855.177a2.1 2.1 0 00-2.375-.232 3.6 3.6 0 01-3.831-1.837c-.427-1.2-1.122-1.447-1.122-1.976 0-.436.455-2.134-.4-2.727l.593-.594.26-.464-.278-.687.8-.39.464.177h.881c.019.037.047.083.074.13a4.26 4.26 0 001.085.928c.77.149 2.282.612 2.978.074s1.039-1.159 2.05-1.159a15.944 15.944 0 014.285 1.048c1.55.538 4.685.38 4.991.074a2.65 2.65 0 00.278-.371h1.67l.928.7-.055 1.335.751.233.761.287-.177.538a.48.48 0 00-.464-.009c-.408.287 0 1.855 0 1.855l.288.751.287.984a5.643 5.643 0 01-1.679-.408 1.045 1.045 0 00-.482-.092" transform="translate(-19.618 -102.73)" fill="#be0000"/><path id="Path_711" data-name="Path 711" d="M64.525 150.795a1.223 1.223 0 01-.473.482 2.134 2.134 0 01-.984.2 1.4 1.4 0 01-.575.287c-.259.028-.492-.408-.492-.408h-1.252l-.288-.232-.668.38-.752-.928v-.009c.038-.12.3-.946.408-.946a.841.841 0 00.325-.2c.083-.055.139-.1.139-.1l-.2-.7 1.159-1.6.547-.027.056-1.243-.343-.092.083-.343-.361-.269a9.133 9.133 0 011.346-.947c.242-.037 1.976.149 2.477.149s1.122.816 1.122.816l.5-.584.621.7.464-.575.158.464.418.037.584-.269.5.538.036-.928.39-.5.965-.037.788-.019-.009-.528.64.092.056.232.352-.2.575-.26.324.464.631.844H73.3l.093.89 1.215-.083-.028.7.232-.028.028.547.288.64.436-.408s.547.556.789.556a3.39 3.39 0 00.89-.408s.5 1.132.723.956a3.718 3.718 0 01.464-.287l.789.64a2.6 2.6 0 00.724.288c.2 0 .668.028.64.139s-.2.668-.2.668l-.64.12.7.315-.64.584s.612.316.584.575.056.612-.352.612-1.159-.027-1.419.232a3.778 3.778 0 00-.427 1.178 16.866 16.866 0 00-1.948.612c-.77.278-1.929.547-2.087.974a.971.971 0 00-.028.566l-1.159-.52-.455.232c-.5-.037-1.243.01-1.335-.167-.111-.232.269-1.085-.575-.844a3.514 3.514 0 00-1.855 1.5 7.877 7.877 0 00-.492.853c-.195-.176-.418-.361-.511-.361-.167 0-.491.324-.806.324a.63.63 0 01-.492-.324l-.047-.39.77-.483.028-.9s.315.065.752.176.408-.315.408-.6-.408-.352-.408-.352l-.056-.835-.408.111.064-1.215a3.52 3.52 0 01-1.131-.176 2.449 2.449 0 01-.724-.612l-1.048.037a1.087 1.087 0 01-.111.241" transform="translate(-17.679 -94.951)" fill="#be0000"/><path id="Path_712" data-name="Path 712" d="M82.739 185.093a1.042 1.042 0 01-.055 1.28 1.951 1.951 0 00-.585.844l-.733-.046c.223-.575.538-1.363.789-2.124a.849.849 0 01.584.046" transform="translate(-24.364 -107.469)" fill="#be0000"/><path id="Path_723" data-name="Path 723" d="M81.466 160.735c.074.195.427.7-.149.659a4.181 4.181 0 00-1.818.584c-.584.269-1.011.733-1.206-.121s-1.2-1.345-1.113-1.466 1.5-.5 1.113-.659a1.17 1.17 0 00-.362-.065l.455-.232 1.159.52a.629.629 0 00.492.593c.464.037 1.354 0 1.428.186" transform="translate(-23.109 -99.808)" fill="#be0000"/><path id="Path_724" data-name="Path 724" d="M79.237 183.152a.354.354 0 01-.037.343 1.087 1.087 0 01-.26.25c-.324.242-.649.474-.983.7a1.441 1.441 0 01-.167.084.976.976 0 01-.371.064 1.293 1.293 0 01-.677-.139.477.477 0 01-.213-.6c.111-.213.39-.26.64-.278l.881-.056a1.3 1.3 0 00.371-.064 3.377 3.377 0 00.39-.232.472.472 0 01.427-.065" transform="translate(-22.903 -106.901)" fill="#be0000"/><path id="Path_725" data-name="Path 725" d="M64.934 133.269l.009-.046.621-.352.464.195.77-.733.019.009.751.418.733-.083.046.659.38-.195.621-.38.306.427.427.148-.037.427-.269.352.38.38-.223.584.464.269.269 1.039.575.046-.074.928.77-.195v.389l.427.343-.621.733-1.122-.148.046 1.271h.306v.89l-.965.037-.39.5-.037.928-.5-.538-.584.269-.418-.037-.158-.464-.464.575-.622-.7-.5.584s-.621-.816-1.122-.816-2.235-.186-2.476-.149a9.107 9.107 0 00-1.345.965l-.046-1.2-.5-.352.315-.538s.538-.464.575-.621a8.9 8.9 0 00-.343-1.318 7.5 7.5 0 01-.083-.844 3.74 3.74 0 001.085-.037c.343-.12 1.234-.427 1.234-.659a12.307 12.307 0 01.232-1.243l1.122-.733-.232-.269z" transform="translate(-18.219 -91.692)" fill="#be0000"/><path id="Path_726" data-name="Path 726" d="M66.156 82.684a4.323 4.323 0 00-.009.6l-.177 1.79a4.244 4.244 0 011.336.872c.464.519.055 1.391 0 1.623s-.816 1.215-.816 1.391 1.335 3.711 1.335 3.711l-.519.12-.121 1.391.287.232-.343.4.177.408h.464l.055 1.391.52.584-.631.863s2.254 1.456 1.735 2.439c-.418.779-3.284 4.388-4.444 5.835a5.35 5.35 0 00-1.122.25c-1.976.64-3.191 2.032-4 1.624s-2.087-.984-2.152-2.2a26.331 26.331 0 00-.167-3.887c-.232-.872-.761-1.679.167-2.43s2.727-3.191 3.368-3.775 2.142-1.623.983-2.5a10.835 10.835 0 00-1.582-1.029L60.052 91l.352-1.159v-.464l-.352-.928.177-.7s-.464-.232-.343-.575 0-1.513.232-1.688-1.391-1.095-1.568-1.095a4.981 4.981 0 01-1.28-1.1c-.186-.223-.5-.677-.742-1.039l.472-.226.779-.538s.538 1.781.844 1.855a7.467 7.467 0 001.623-.232l1.243.928.464-1.085a.9.9 0 00.77-1.159 4.662 4.662 0 01.853-2.551l.538.084 1.234-.621.315 1 .844.315a4.029 4.029 0 01-.13 1.753 4.456 4.456 0 00-.223.909" transform="translate(-16.926 -75.634)" fill="#be0000"/><path id="Path_727" data-name="Path 727" d="M70.69 156.717c0 .287.028.724-.408.6s-.751-.177-.751-.177l-.028.9-.77.483-.213-2.013s-.464-1.049-.585-1.225c-.074-.12-.7-.909-1.066-1.373a1.071 1.071 0 00.111-.241l1.048-.037a2.449 2.449 0 00.724.612 3.517 3.517 0 001.131.176l-.065 1.215.408-.111.055.835s.408.055.408.352" transform="translate(-20.023 -98.072)" fill="#be0000"/><path id="Path_728" data-name="Path 728" d="M59.106 161.2l-.343-.111.055-.724-.176-.176-.584.408-.316-.092-.491-.427.12-.724-.844-.352-.028-.7-.436-.548h.111c.7 0 .7-.231 1.02-.38s.6-1.6.78-1.8.928-.835.928-.835l.668-.38.287.232h1.253s.232.436.492.408a1.408 1.408 0 00.575-.288 2.137 2.137 0 00.983-.2 1.23 1.23 0 00.474-.482c.361.464.992 1.252 1.066 1.372.12.177.585 1.225.585 1.225l.213 2.013.046.389a.632.632 0 00.492.325c.315 0 .64-.325.807-.325.092 0 .315.186.51.362-.037.083-.083.186-.13.306-.269.7-1.048.807-1.122 1.391a2.46 2.46 0 01-.343.844 12.9 12.9 0 00-2.3-.724 5.39 5.39 0 00-1.391.89l-2.644-.232-.287-.659z" transform="translate(-16.787 -98.191)" fill="#be0000"/><path id="Path_729" data-name="Path 729" d="M66.891 121.58l.223.455s-.863.761-.928 1.1a9.685 9.685 0 00.352 1.855l-.436 1.15-.38.064-.139-.315-.547.315-1.428-1.326-.956.343a1.384 1.384 0 000-.343c-.056-.352-.984-.352-1.1-1.215s.177-1.632.872-1.8a14.223 14.223 0 013.71-.177 1.52 1.52 0 00.761-.111" transform="translate(-18.423 -88.473)" fill="#be0000"/><path id="Path_730" data-name="Path 730" d="M64.217 168.109l-.446.223-.287.408h-.816l-.6-.2-1.1-.055-.955.371-.093.037.111-1.215-.431-.078v-.269l-.2-.019.046-.1.352-1.039.464-.548-.315-.195-.687-.417.464-.046.074-.464.269-.232.028.009.287.659 2.644.233a5.39 5.39 0 011.391-.891 12.963 12.963 0 012.3.724 4.736 4.736 0 00-.464 1.206c-.251 1.011-.149 1.3.1 1.688h-.872l-.464-.176z" transform="translate(-17.743 -101.255)" fill="#be0000"/><path id="Path_731" data-name="Path 731" d="M65.608 128.9l.13 1.632-.018-.009-.77.733-.464-.195-.621.352-.01.046-1-1.02-.928-.092-.027-.52-.872.52-1.253-.232-1.243-.288-1.048.816-.242-.018a4.831 4.831 0 01.771-2.885 1.09 1.09 0 011.679-.056c.52.7.872.928 1.215.807.287-.083.445-1.234.464-1.855l.956-.343 1.428 1.327.547-.315.139.315.38-.065-.027.065.352.352-.177 1.1z" transform="translate(-17.14 -89.884)" fill="#be0000"/><path id="Path_732" data-name="Path 732" d="M63.669 133.7l.232.269-1.122.733a12.3 12.3 0 00-.232 1.243c0 .232-.89.538-1.234.659a3.758 3.758 0 01-1.085.036l-.687-.918-.288-.01-.055-.6.26-.316-.177-.556-.752.065-.723-.492-.427-.046a14.544 14.544 0 01-.121-1.206c-.009-.148-.018-.287-.018-.418l.241.019 1.048-.816 1.244.287 1.252.232.872-.519.028.519.928.093 1 1.02z" transform="translate(-17.14 -91.395)" fill="#be0000"/><path id="Path_733" data-name="Path 733" d="M56.474 171.337l2.06-.807.092-.037.956-.371 1.1.056.6.2h.818l.288-.408.445-.223.279.687-.26.464-.594.593a1.161 1.161 0 00-.6-.2c-.89-.083-1.929.037-1.744.306s-.036.575-.537.538-1.123-.575-.771.352a5.127 5.127 0 001.392 2c.306.241 1.308.7.575 1.085s-1.123.306-1.392.158-.343 0-.111.232-.158.538-.121.844.427 1.169-.037 1.085a2.267 2.267 0 01-1.623-.928c-.343-.621-1-1.466-.659-1.466a1.329 1.329 0 00.7-.269 1.106 1.106 0 01-.538-.232c-.352-.232-.464-.621-.659-.853s-1 .464-1.28-.158a3.278 3.278 0 01-.2-.974l1.252-.844.492-.807z" transform="translate(-16.363 -102.897)" fill="#be0000"/><path id="Path_734" data-name="Path 734" d="M64.961 183.883a.242.242 0 01-.1.269.57.57 0 01-.3.083 5.473 5.473 0 01-.557.019 5.531 5.531 0 01-2.105-.511.37.37 0 01-.158-.111.153.153 0 01-.009-.176.369.369 0 01.1-.056 3.069 3.069 0 011.419.047c.3.055.6.121.9.176.177.028.343.065.52.093.111.027.241.064.287.167" transform="translate(-18.478 -106.964)" fill="#be0000"/><path id="Path_735" data-name="Path 735" d="M55.742 137.175l.287.009.687.918a7.371 7.371 0 00.084.844 8.97 8.97 0 01.343 1.317c-.037.158-.575.621-.575.621l-.315.538.5.353.047 1.2.361.269-.083.343.343.092-.056 1.243-.547.028-1.159 1.6.2.7a1.685 1.685 0 01-.139.1 14.504 14.504 0 01-.862-.269l-.427-.315-.575.037a.533.533 0 01-.621.12c-.306-.195-1.039.232-1.039.232l-.39-.779-.77.278-.01-.037-.111-.853-1.305-.364s.074-.538-.279-.5-.538.928-.733.659-.5-1.048-.659-1.234-1.2-.232-1.2-.232a1.856 1.856 0 00-.232-.223v-.9l-.38-.427-.046-1.819-.575-.427.352-.77.186-.427-.343-.158v-1.021a1.326 1.326 0 001.159-.092 15.341 15.341 0 012.589-1.475c.537-.111 1.159-.232 1.271.083s-.037 1.159.853.928a1.531 1.531 0 00.733-.361z" transform="translate(-13.627 -92.863)" fill="#be0000"/><path id="Path_736" data-name="Path 736" d="M55.329 92.51l.445 1.391c-.677-.343-1.3-.464-1.66 0a8.7 8.7 0 00-1.391 3.191 5.887 5.887 0 01-1.966 3.414c-1.336 1.169-2.9 3.775-2.959 5.046a2.856 2.856 0 001.28 2.439c.631.575 1.5 2.663.288 3.3a3.41 3.41 0 00-2.087 2.5c0 .872.232 3.534-1.049 4s-1.391 1.568-2.319 1.568c-.584 0-.909-.483-1.131-1.2a12.177 12.177 0 01-.315-1.475 19.712 19.712 0 00-1.513-4 6.069 6.069 0 01-.195-1.094l.241-.065.38-1.929c.548-.232.928-1.855.622-2.634s.074-.538.074-.538a.635.635 0 000-1.086c-.7-.612-.38-5.25-.38-5.25l.844-1.243 1.548.155-.464-2.087.853-1.392-.083-2.551 1.243-.464.074-.928s1.159-1 1-1.623A4.961 4.961 0 0146.6 88.3c.028-.1.065-.177.111-.2.232-.074.621-1.234 1.159-1.159s1.159 0 1.011-.928l-.158-.928 2.245.853s.38-1.391.232-1.623.232-.39.232-.39l.371-.167c.242.361.557.816.743 1.039a4.97 4.97 0 001.28 1.1c.177 0 1.8.928 1.568 1.095s-.121 1.335-.232 1.688.343.575.343.575l-.176.7.352.928v.464z" transform="translate(-12.204 -77.149)" fill="#be0000"/><path id="Path_737" data-name="Path 737" d="M53.806 161.527l.352-.575-.427-.241.019-.89v-.01c.259-.185.482-.371.482-.371a9.309 9.309 0 011.132-.083l.436.547.028.7.844.352-.121.724.492.427.315.092.585-.408.176.176-.055.724.343.111-.269.232-.074.464-.464.046.686.418.316.195-.464.548-.353 1.039-.046.1-.844-.065-.037.316-.649-.037-.574.269-.01-.083-.195-.539-.39-.305.427-.548-.5-.269-.853-.733a3.718 3.718 0 01-.074-.733c.037-.12.352-.083.352-.083l-.621-.649.232-.195.232-.306z" transform="translate(-16.089 -99.785)" fill="#be0000"/><path id="Path_738" data-name="Path 738" d="M58.675 135.268l.177.556-.26.316.055.6-3.432-.167a.9.9 0 00.232-.6c.037-.352.547-.51.7-.51a.693.693 0 00.334-.13c.39-.047.38 0 .3-.538l.427.046.723.492z" transform="translate(-16.533 -92.43)" fill="#be0000"/><path id="Path_739" data-name="Path 739" d="M58.549 168.584l.2.018v.269l.427.074-.111 1.215-2.06.807-.575-.668.074-.7-.065-.538.575-.269.649.037.037-.316z" transform="translate(-16.898 -102.528)" fill="#be0000"/><path id="Path_740" data-name="Path 740" d="M49.59 157.118c-.324-.306-.77-.7-.77-.7l.52-.232.027-1.021.668-.139.092-.7 1.187.548.751-.121.028-.575.844.148.028-.3.64.092.752-.724.436.2 1.187.018v.009l.752.928s-.752.631-.928.835-.464 1.651-.78 1.8-.324.38-1.02.38h-.111a9.312 9.312 0 00-1.132.083s-.222.186-.482.371v.009a2.194 2.194 0 01-.677.371 6.005 6.005 0 01-1.679-.928 2.054 2.054 0 00-.334-.361" transform="translate(-14.618 -98)" fill="#be0000"/><path id="Path_741" data-name="Path 741" d="M56.268 151.4s.51.177.862.269a.845.845 0 01-.324.195c-.111 0-.371.826-.408.946l-1.187-.019-.436-.2-.751.724-.64-.093-.028.3-.844-.149-.027.575-.752.121-1.187-.547-.306-.343-.028-.8.575-.4h.733v-.621l.39-.148.38-.121.149-.149.01.037.77-.278.39.779s.733-.427 1.039-.232a.533.533 0 00.621-.12l.575-.037z" transform="translate(-15.035 -97.191)" fill="#be0000"/><path id="Path_742" data-name="Path 742" d="M55.8 168.9l.065.538-.074.7.575.668-.083.028-.492.807-1.253.844a9.853 9.853 0 01-.046-.761c-.018-.51 0-1.048.028-1.531a2.933 2.933 0 00-.232-1.493 2.961 2.961 0 00.232-.492c.037-.195.687-.232.687-.232l.39.306.195.538z" transform="translate(-16.256 -102.366)" fill="#be0000"/><path id="Path_743" data-name="Path 743" d="M55.217 166.762l-.427.547s-.649.037-.687.232a2.852 2.852 0 01-.232.492 1.851 1.851 0 00-.974-.862 6.005 6.005 0 01.315-1.021.574.574 0 01.649-.389l.853.733z" transform="translate(-15.84 -101.699)" fill="#be0000"/><path id="Path_744" data-name="Path 744" d="M52.132 163.11l.621.649s-.315-.037-.352.083a3.719 3.719 0 00.074.733.574.574 0 00-.649.389 6.006 6.006 0 00-.315 1.021 4.964 4.964 0 01-1.29-.575 1.641 1.641 0 00-.213-.872c-.315-.464-1.744-2.087-1.744-2.087v-.659s.352.427.659.39a1.115 1.115 0 00.584-.39h1.159l.538.111.965.352.427.352-.232.306z" transform="translate(-14.452 -100.514)" fill="#be0000"/><path id="Path_745" data-name="Path 745" d="M51.463 160.758l-.352.575-.965-.352-.538-.111h-1.16a1.115 1.115 0 01-.585.39c-.306.037-.659-.39-.659-.39v.659s1.428 1.623 1.744 2.087a1.641 1.641 0 01.213.872c-.028-.009-.046-.037-.064-.056-.835-.955-1.559-.806-2.078-1.5a6.274 6.274 0 01-.733-1.512.888.888 0 00-.51-.556c-.12-.047-.12.389-.352.418a.641.641 0 01-.7-.612 1.506 1.506 0 01.028-.3l1.011-.019.083-.3.529.3.232.028.26-.64.259-.028-.027-.547.723-.232.538-.223a2.026 2.026 0 01.334.362 6.038 6.038 0 001.679.928 2.192 2.192 0 00.677-.371l-.018.89z" transform="translate(-13.393 -99.59)" fill="#be0000"/><path id="Path_746" data-name="Path 746" d="M44.459 151.3l-2.18-1.874s.352-.352.195-.584a5.414 5.414 0 00-.38-.5l2.625-1.391s.427.037.584.037a.321.321 0 01.186.092 1.856 1.856 0 01.232.223s1.048.037 1.2.232.464.965.659 1.234.39-.621.733-.659.278.5.278.5l1.308.352.111.853-.149.149-.38.121-.39.148v.621h-.733l-.575.4-.046.027-.733.037-.464-.389-.464-.269-.547-.195-.269.7v.39l-.418.074z" transform="translate(-12.604 -96.069)" fill="#be0000"/><path id="Path_747" data-name="Path 747" d="M46.456 153.554l.306.343-.092.7-.668.139-.027 1.02-.52.232-.149.195-1.131.093a.483.483 0 01-.464.371 11.033 11.033 0 01-1.234-.149l-1.466-.269v-.629l-1.122.037-.306.352-.714.028-.177-.148h-.584l-.232-.306h-.232l-.065-.733h.455l.269.38.39.037v-.5l.621.083.269.306.807-.427.464-.306 1.049.575-.12-.965.39-.733v-.306l.937-.176.38.324.418-.074v-.389l.269-.7.547.195.464.269.464.39.733-.037.046-.028z" transform="translate(-11.252 -97.572)" fill="#be0000"/><path id="Path_748" data-name="Path 748" d="M48.286 158.407l-.538.223-.724.232.028.547-.26.028-.26.64-.232-.027-.528-.3-.084.3-1.011.018c.019-.213.046-.39-.092-.4l.055-.12-.176-.724.074-.612a11.032 11.032 0 001.234.149.483.483 0 00.464-.371l1.131-.092.149-.195s.446.4.77.7" transform="translate(-13.314 -99.289)" fill="#be0000"/><path id="Path_749" data-name="Path 749" d="M31.953 145.429l.176-.455-.269-.51v-.5l-.232-.464.427-.7-.5-.5 1.234-.538-.074-1.159.343-.074.185-1.707c.575-.13 1.559-.352 1.744-.7a5.879 5.879 0 00.046-2.041l1.382.1c.13.4.38.946.7.946.464 0 .89-.352.853-.12s-.39 1.159.149.928a16.583 16.583 0 012.514-1.234c.269.074-.269.5.306.89a2.631 2.631 0 00.584.288v1.02l.343.158-.186.427-.352.77.575.427.046 1.818.38.427v.9a.321.321 0 00-.186-.092c-.158 0-.584-.037-.584-.037l-2.625 1.391a5.419 5.419 0 01.38.5c.158.232-.195.584-.195.584l2.18 1.874-.937.176v.306l-.39.733.121.965-1.049-.575-.464.306-.807.427-.269-.306-.621-.083v.5l-.39-.037-.269-.38h-.455l-.009-.158-.575-.074-1.048.111-.621.158.12-1.391.7-1.318-1.354-.074-.232-.352-.6-.427.139-.575-.343-.538z" transform="translate(-9.448 -92.814)" fill="#be0000"/><path id="Path_752" data-name="Path 752" d="M60.1 75.537a25.357 25.357 0 00-3.414-1.215 10.953 10.953 0 00-3.831.928 19.689 19.689 0 01-4.694 1.911c-2.264.64-3.943 3.822-4.407 4.926-.38.9-.825 1.791-1.484 3.126l-.483.993a167 167 0 01-1.892 3.655c-1.364 2.57-3.005 5.547-3.618 6.493a11.93 11.93 0 01-3.655 2.894c-1.8 1.623-2.5 2.207-2.208 2.848s.121 3.711.177 6.373 2.959 2.439 3.6 2.032a21.686 21.686 0 002.495-2.375c.705-.715.863-.093.956.64l.242-.065.38-1.929c.548-.232.928-1.856.622-2.635s.074-.538.074-.538a.635.635 0 000-1.085c-.7-.612-.38-5.25-.38-5.25l.844-1.244 1.549.158-.464-2.087.853-1.391-.083-2.551 1.243-.464.074-.928s1.159-1 1-1.623a4.958 4.958 0 01-.111-1.66c.028-.1.065-.176.111-.195.232-.074.621-1.234 1.159-1.159s1.159 0 1.012-.928l-.158-.928 2.245.853s.38-1.391.232-1.623.232-.39.232-.39l.371-.167.474-.223.779-.538s.538 1.782.844 1.856a7.511 7.511 0 001.623-.232l1.243.928.464-1.085a.9.9 0 00.77-1.16 4.654 4.654 0 01.853-2.551l.538.083 1.234-.621.315 1 .844.315a4.032 4.032 0 01-.13 1.754 4.4 4.4 0 00-.223.909l.51-.269.287-.872.872-.4v-.761l.464.3h.52l-.028-.565v-.009a12.8 12.8 0 01-1.131-.705c-.464-.352.287-.872 1.159-1.215s-.464-1.215-.872-1.336" transform="translate(-9.088 -74.322)" fill="#be0000"/><path id="Path_753" data-name="Path 753" d="M42.579 132.55c.1.418-.251.334-.361.51a2.262 2.262 0 00-.111 1.123 1.445 1.445 0 01-.7 1.2c-.316.195-.511-.074-.659-.343s.149-.315.39-.195c.222.111.38-.316.38-.511s-.306-.464-.733-.5a.23.23 0 01-.158-.074c-.139-.158.1-.556 0-.816a1.073 1.073 0 01.621-1.039.885.885 0 01.575-.232c.353 0 .464.158.705.733.018.056.037.111.046.149" transform="translate(-12.153 -91.494)" fill="#be0000"/><path id="Path_754" data-name="Path 754" d="M22.094 204.235l-1.169.2v-.928l-1.391-.584-1.392-1.215-6.494-4.926-.269-.158-4.573-2.736-.009-.761-.018-1.327 1.855-1.1 1.855.111 1.624-1.568.816.065.055-.761-.584-.232v-1.1l3.247-.167v-.232l.408-.287-.983-.872.111-2.207a7.6 7.6 0 00-.928-.807c1.744-.39 3.943-1.7 6.846-2.143 2.384-.371 4.982-.659 6.55-.788l-.585.844-.055 1.392s.3.928.055 1.271c-.223.352-.983.816-.983 1.1a4.545 4.545 0 00.7 2.032c.352.232 1.215.64 1.215.64l.566 2.783a2.272 2.272 0 00-.25.269c-.074.111.538 1.122.538 1.122l.037 3.516-.5.38.733 1.976s1.512.575 1.623.621a6.294 6.294 0 01.677 1.122c-1.6.993-4.2 2.579-4.638 2.811a30.881 30.881 0 00-2.784 2.32z" transform="translate(-2.03 -105.879)" fill="#be0000"/><path id="Path_755" data-name="Path 755" d="M39.167 185.442l.055 1.234-1.54 1.011.037 1.2s-.565.529-.909.854l-.566-2.783s-.862-.408-1.215-.64a4.557 4.557 0 01-.7-2.032c0-.288.761-.752.984-1.1.241-.343-.056-1.271-.056-1.271l.056-1.391.584-.844c.64-.055 1.113-.083 1.336-.083a1.513 1.513 0 01.621.1c.446.186.752.7.7 2.041-.055 1.91-.575 3.126.464 3.655a.916.916 0 00.139.055" transform="translate(-10.281 -105.843)" fill="#be0000"/><path id="Path_756" data-name="Path 756" d="M38.756 132.606a.378.378 0 01.009.2c-.074.316-.733.659-.89.269s-.269-.687-.427-.687.037.649.037.844a1.8 1.8 0 00.074.371l-1.382-.1a6.263 6.263 0 00-.111-.742c-.083-.315-.575-.64-.6-.956a6.544 6.544 0 010-2 1.6 1.6 0 01.835-1.094c.436-.269 2.032-1.716 2.06-1.048s-.464 1.744-.288 1.91a5.628 5.628 0 00.779.724 5.89 5.89 0 01-.315.928c-.158.315-.853.7-.853.89s.39-.037.584-.037c.149 0 .427.26.492.529" transform="translate(-10.594 -90.242)" fill="#be0000"/><path id="Path_757" data-name="Path 757" d="M35.806 155.96l.065.733h.229l.232.306h.584l.177.149-.139.009-.074.39h-.315l-.149.649-.853-.38-.269.965-.659-1.011-.659.853-1.076.077-.195-.965-1.049.5.352-1.2.891-.5-.121-.659.77.12.622-.158 1.048-.111.575.074z" transform="translate(-9.48 -98.698)" fill="#be0000"/><path id="Path_758" data-name="Path 758" d="M37.476 157.576l.715-.028.305-.352 1.123-.037v.621l1.466.269-.074.612.176.724-.055.121a.806.806 0 00-.427.149 1.626 1.626 0 00-1.021 1.419 3.3 3.3 0 00.64 1.679 27.3 27.3 0 002.5 2.9 5.572 5.572 0 001.094.2s-.111.343.352.659a19.778 19.778 0 012.783 1.827.917.917 0 01.009.167c0 .325-.074.817-.418.622-.408-.233-1.076-1.132-1.215-.993s-.64.584-.325 1.1a1.744 1.744 0 01-.167 1.744c-.325.63-.872 1.215-1.076 1.039a.474.474 0 01-.195-.352.867.867 0 01.167-.427 1.885 1.885 0 00.26-1.6 12.176 12.176 0 00-2.959-2.7 23.386 23.386 0 01-2.792-2.152 1.615 1.615 0 01-.158-.195c-.2-.38-.528-1.883-1.484-2.264a2.943 2.943 0 00-2.662.361l.018-.64-.816-.037v-1l-.306-.389.427-.585-.352-.686.278-.242 1.076-.074.659-.853.659 1.012.269-.965.853.38.149-.649h.315l.074-.39z" transform="translate(-9.861 -99.126)" fill="#be0000"/><path id="Path_759" data-name="Path 759" d="M46.342 177.682c.186-.009.223.055.2.13a.526.526 0 01-.083.158 2.543 2.543 0 00-.3.751c-.055.38.093.64.028.928s-.687.177-.89 0a8.582 8.582 0 00-1.744-.835 2.585 2.585 0 01-.474-.176.584.584 0 01-.306-.52s-.12-.287.7-.38c.362-.036.984.26 1.447.233s1.048-.26 1.419-.288" transform="translate(-12.808 -105.271)" fill="#be0000"/><path id="Path_760" data-name="Path 760" d="M37.5 167.97a.374.374 0 01.074.214c0 .306-.232 1.391-.547 1.466a.474.474 0 01-.111.018c-.251 0-.446-.25-.584-.788a1 1 0 01.779-1.234 1.158 1.158 0 01.39.324" transform="translate(-10.87 -102.267)" fill="#be0000"/><path id="Path_761" data-name="Path 761" d="M36.893 171.162s1.159-.38.39 2.867c-.1.417-.306.565-.529.565a.881.881 0 01-.7-.492 5.584 5.584 0 01-.158-2.245c.065-.408.6-.63.9-.687a.424.424 0 01.1-.009" transform="translate(-10.734 -103.315)" fill="#be0000"/><path id="Path_762" data-name="Path 762" d="M26.732 149.731l.6.427.232.352 1.354.074-.7 1.317-.12 1.392-.77-.121.12.659-.89.5-.353 1.2 1.049-.5.195.965-.278.241.352.687-.427.584.306.39v1l.816.037-.019.64c-.009 0-.018.009-.027.018-.38.436-.844 1.308-1.716 1.159s-2.783-1.271-3.154-.232a3.165 3.165 0 00-.158 1.253 17.894 17.894 0 01-1.791.028 3.369 3.369 0 01-.723-.464l-1.1.055-1.763-.492s-.566-.51-.909-.9a3.718 3.718 0 001.169-3.423 4.6 4.6 0 00-2.087-3.368c-.612-.259-1.976-.111-2.115-.519s-.789-1.336.111-1.531a10.292 10.292 0 012.783.111c.464.028.844-.287.751-.519s-.575-1.939.037-1.419 1.095.872 1.475.668 1.187-1.076 1.651-1.391.324-1.336.751-1.568c.186-.1.5-.213.826-.343l.324.483.584.121.195.77.807.037.083.742.343.037.306-.5.315 1 .612.269.214.009.677.028z" transform="translate(-4.033 -95.994)" fill="#be0000"/><path id="Path_763" data-name="Path 763" d="M31.958 140l-.186 1.707-.343.074.074 1.159-1.234.538.5.5-.426.7.231.464v.491l-.5-.371.121-.584-.278-.306-.5-.121-1.039-.148-.121.195-.464.232-.528-.315a1.414 1.414 0 00.2-.186 12.085 12.085 0 001.391-2.292c.083-.324.232-.788.408-.668s.111.928.427.928.325-.232.3-.529-.324-.751-.036-.983a7.5 7.5 0 011.688-.408 8.48 8.48 0 01.315-.074" transform="translate(-8.164 -93.988)" fill="#be0000"/><path id="Path_764" data-name="Path 764" d="M31.86 149.435l.343.538-.139.575-.055-.037-.677-.028-.055-.779.593-.278z" transform="translate(-9.365 -96.811)" fill="#be0000"/><path id="Path_765" data-name="Path 765" d="M30.182 147.391l.269.51-.176.455-.594.278.056.78-.214-.01-.612-.269-.315-1-.306.5-.343-.037-.083-.742-.807-.037-.195-.77-.584-.12-.325-.483a4.7 4.7 0 00.918-.482l.529.315.464-.232.12-.195 1.039.148.5.121.278.306-.12.584.5.371z" transform="translate(-7.771 -95.74)" fill="#be0000"/><path id="Path_766" data-name="Path 766" d="M20.94 167.383c.019.427.055.761-.167.984 0 0-.872.983-1.336 1.011a2.09 2.09 0 00-1.763 1.011c-.7.928-1.131 1.8-.872 2.087s.557 1.049-.7 2.208-1.6 1.54-2.783 1.6a4.032 4.032 0 00-2.5.752c-.092.186-.352.223-.649.046a1.946 1.946 0 01-.677-.715 1.879 1.879 0 00-1.438-.825 9.327 9.327 0 01.13-1.364 5.218 5.218 0 00.074-1.011.317.317 0 00.195-.38 1.355 1.355 0 01-.037-.51l-.464-.464.7-.111.232-2.161.7-.853-.538-.037.074-.464-1.892.269-.121-.575-.417.167a1.819 1.819 0 00-.149-.751c-.2-.232-.668-.38-.352-.928a2.516 2.516 0 012.467-.9c1.215.148 5.158.38 5.621.352a.748.748 0 00.371-.2c.343.39.909.9.909.9l1.763.492 1.1-.055a3.359 3.359 0 00.724.464 17.9 17.9 0 001.79-.028" transform="translate(-1.822 -101.605)" fill="#be0000"/><path id="Path_767" data-name="Path 767" d="M26.545 173.785c.39.083.621 1.02 0 1.02s-1.076-.463-.844-.695a1.248 1.248 0 01.844-.325" transform="translate(-7.677 -104.102)" fill="#be0000"/><path id="Path_768" data-name="Path 768" d="M14.026 187.405l-.408.288v.232l-3.246.167v1.1l.584.232-.055.76-.817-.064-1.624 1.57-1.86-.111-1.855 1.1.018 1.336H0c1.225-.881 3.562-2.217 3.646-3.071.12-1.1-.111-4.063 2.959-5.389 1.754-.77.984-2.848 1.568-2.9s1.391 1.049 3.246.984a4.179 4.179 0 00.807-.111 7.6 7.6 0 01.928.807l-.111 2.207z" transform="translate(0 -106.758)" fill="#be0000"/><path id="Path_769" data-name="Path 769" d="M8.973 137.472l.269.083a.983.983 0 00-.046.492c.158 1.317-.186 3.052-.807 3.052s-1.929 1.317-3.321 1.475-.158-2.171-.083-2.867a6.461 6.461 0 00-.427-2.588c-.222-.464.278-.269 1.587-.343.8-.046.8-.352.677-.687a.653.653 0 01.427-.862 4.307 4.307 0 01.9-.195l-.455.816-.575.575-.046.464.464.427.659-.659.39.816z" transform="translate(-1.32 -92.501)" fill="#be0000"/><path id="Path_770" data-name="Path 770" d="M9.456 169.724l-.7.853-.232 2.161-.7.111.464.464a1.359 1.359 0 00.037.511.316.316 0 01-.195.38 5.224 5.224 0 01-.074 1.012 9.418 9.418 0 00-.13 1.363 1.847 1.847 0 00-.649.046c-.38.111-.872.056-1.076-.788s-.752-1.883-.492-2.319a7.835 7.835 0 00.956-2.895c-.065-.352-.074-1.011-.111-1.54l.418-.167.12.575 1.892-.269-.074.464z" transform="translate(-1.692 -102.647)" fill="#be0000"/><path id="Path_771" data-name="Path 771" d="M19.341 136.427c.659-.037 1.586.89.974 1.586s-1.586 1.308-1.159 1.5 1.354.037.538.584a5.451 5.451 0 01-2.857.844c-.659-.074-2.514-.232-2.6.158s-.149.854-.77.7a.907.907 0 00-1.039.195c-.315.232-1.085 0-.733-.306s1.076-1.744 1.735-1.782 1.966-.195 1.55-.39-1.392-.111-1.587-.269-1.048-.074-1.085-.343a.9.9 0 01.584-.89c.418-.158.844-1.122.5-1.317s-.733-1-.305-1 1.382.464 1.539-.083.306-1.345-.111-1.586c0 0-.743-.575-.585-.687s.622-.854.269-.854-1.354.306-1.466.306a.678.678 0 01-.306-.844c.195-.427.418-1.122.111-1.122s-.482.659-.733.7c-.176.019-.306-.315-.306-.621s-.445-.055-.547-.158c-.167-.167.158-.575.5-.807s-.037-.361-.306-.352c-.324.009-.352-.158-.065-.538s.464-.9.26-1.011-1.131-.5-.9-.9.724-.816.7-.436.149.436.315.149.427-.816.427-.816c.232-.575-.186-1.355.352-1.428s2.978-.39 2.626.195-1.16 1.391-1.16 1.623-.074.269.7.111 2.013-.269 1.856.315-1.2 2.235-1.271 2.7-.195 1.354.232 1.586a15.053 15.053 0 011.892 1.855c.111.158.928.465.965.622s.12 1.428.343 1.586c.241.149.158.575.315.928s-.037.343.612.306" transform="translate(-3.117 -89.332)" fill="#de7165"/><path id="Path_772" data-name="Path 772" d="M10.529 135.452c1.1 1.716.111 1.447-.149 2.1l-.269-.083h-.39l-.39-.816-.659.659-.464-.427.046-.464.575-.575.455-.816a1.209 1.209 0 011.243.427" transform="translate(-2.458 -92.494)" fill="#be0000"/><path id="Path_773" data-name="Path 773" d="M10.941 125.352a.434.434 0 01-.092.269 4.866 4.866 0 00-.2.742.231.231 0 01-.064.111.306.306 0 01-.223.037c-.2-.009-.446-.055-.51-.241a.667.667 0 01-.01-.139 1.32 1.32 0 01.074-.538.663.663 0 01.371-.371 1.02 1.02 0 01.334-.028c.13 0 .3.028.324.158" transform="translate(-2.945 -89.555)" fill="#de7165"/><path id="Path_774" data-name="Path 774" d="M9.527 127.586c.018.186-.177.446-.25.6a.3.3 0 01-.111.148.212.212 0 01-.26-.111.766.766 0 010-.668c.055-.092.158-.278.343-.222a.55.55 0 01.278.25" transform="translate(-2.644 -90.193)" fill="#de7165"/></g></g></g></svg>