<svg id="Group_517" data-name="Group 517" xmlns="http://www.w3.org/2000/svg" viewBox="0 0 100 100"><defs><clipPath id="clip-path"><circle id="Ellipse_55" data-name="Ellipse 55" cx="50" cy="50" r="50" fill="#fff" stroke="#707070" stroke-width="1"/></clipPath><clipPath id="clip-path-2"><rect id="Rectangle_189" data-name="Rectangle 189" width="57.708" height="85.557" fill="#be0000"/></clipPath></defs><circle id="Ellipse_54" data-name="Ellipse 54" cx="50" cy="50" r="50" fill="#f7e7e5"/><g id="Mask_Group_28" data-name="Mask Group 28" clip-path="url(#clip-path)"><g id="Group_535" data-name="Group 535" transform="translate(13.517 8.222)"><g id="Group_534" data-name="Group 534" clip-path="url(#clip-path-2)" fill="#be0000"><path id="Path_990" data-name="Path 990" d="M182.427 5.2c1.082-.433 1.442 1.082.793 2.091s-3.389 3.334-3.029 5.7c.5 3.317-.216 8-.361 10.24s-2.019 2.74-3.461 3.1-2.163 2.019-2.956 2.74-1.226 3.678-2.019 4.11-3.029-3.822-3.461-5.12.5-3.317.5-4.687-.865-2.019-1.947-4.976-1.442-1.875-2.884-1.731a1.387 1.387 0 01-.793-.144 1.306 1.306 0 01-.573-1.523c.144-.433.216-.938-.937-1.586s.288-1.37 1.8-2.235.5-1.442.361-2.452.865-2.091 1.8-3.029 2.668-1.514 4.471-2.38S172.908.58 175.5.075s2.163 1.659 3.533 2.812-1.875 1.3-2.452 2.019 2.38-.288 2.956-.433.577 1.37.865 1.8.938-.649 2.019-1.082" transform="translate(-125.835)"/><path id="Path_991" data-name="Path 991" d="M247.184 127.99c-.049.312-.049.623-.5.839s-1.154.963-1.419.865-.528-.289-.744-.335-.819.046-.793-.072.312-.242.312-.387.049-.433-.239-.433-.842-.167-.459-.216.721-.167.626-.288-.433-.046-.554-.046-.384.072-.19-.288a2.077 2.077 0 01.479-.675.415.415 0 01.482.266c.049.239.337.77.384.433s.144-.554.242-.361-.026.337.167.049.337-.315.528-.193.387.288.387.072.144-.528.311-.41a2.644 2.644 0 01.554.387 4.691 4.691 0 01.433.793" transform="translate(-190.183 -99.166)"/><path id="Path_992" data-name="Path 992" d="M160.826 276.881l-.418-.026.026-.577-.216.144-.337.049-.193-.144h-.239l-.023-.361-.265-.456.265-.338a1.456 1.456 0 01.239-.577 3.651 3.651 0 01.865-.265l.121-.1.1-.488.09-.539-.288-.415v-.216h.326l-.164-.216v-.156l.488-.017.482-.167.061.075s-.055.381.216.415a1.215 1.215 0 00.811-.271c.017-.09.343-.289.343-.289l-.092-.127-.179.037-.035-.306-.326-.343.721.179.216-.124.288-.055s.323-.09.323-.179a.572.572 0 00-.023-.167l.311.058-.089.2.216.162-.089.415.161.467.288.182.254-.2.531-.075.225-.032.055-.144h.467l.2.107.522-.038.4-.825a1.044 1.044 0 01.34.407c.239.623.335 1.2 1.154 1.488a14.578 14.578 0 002.619.842c1.131.023 2.835 1.347 1.947 2.284-1.569 1.653-1.2 1.632-1.491 3.029s-.312 2.186-2.235 2.6c-1.788.381-.984 1.442-1.561 2.354a15.311 15.311 0 01-1.407 1.944l-.084-.62-.721-.649-.216-.049-.288-.288-.274.014.035-.11.623-.77.7-.312.049-.626-.234-.058.041-.663-.41-.049.049-.384-.311-.337h-.7l-.023-.767s0-.066.006-.156a1.142 1.142 0 01.09-.421.484.484 0 00.049-.337l-.288-.311v-.293l-.675.023-.023-.337-.121-.1.144-.1-.1-.531-.482-.072-.528-.361-.433-.072-.265-.144-.046-.816h-.433l-.721.5z" transform="translate(-124.489 -211.858)"/><path id="Path_993" data-name="Path 993" d="M193.082 270.237l-.4.825-.522.037-.2-.107h-.012l.193-.542-.216-.306.259-.435a4.408 4.408 0 01.891.528" transform="translate(-150.122 -210.957)"/><path id="Path_994" data-name="Path 994" d="M187.444 334.345l.084.62a3.289 3.289 0 01-.323.317c-.4.335-1.3-.118-1.485-.11l-.078-.156.1-.986.208-.658.274-.014.288.288.216.049z" transform="translate(-145.202 -260.742)"/><path id="Path_995" data-name="Path 995" d="M166.056 321.2l-.208.658-.1.986.078.156a.03.03 0 00-.029.012c-.245.329 1.1 1.059.262 1.78-.476.407-1.67.127-1.659.7.026 1.082-1.033.623-1.033.84a5.5 5.5 0 01-.144 1.586c-.239.433-1.01.5-.77 1.036s.987.551.193 1.321c-.981.949-.77 1.529-.577 2.019l-.141.006v-.055a8.655 8.655 0 00-1.009-.167.341.341 0 01-.312-.239l-.1-.6a1.329 1.329 0 01-.262-.023c-.035-.012-.041-.19-.032-.389a1.184 1.184 0 01.1-.525c.1-.072.118-.5.262-.839a4.052 4.052 0 00.193-.531l.121-.6-.072-.239.118-.216-.167-.144.1-.361-.19-.144-.144-.41.239-.121a6.929 6.929 0 01.216-1.61c.144-.121 0-.554-.023-.888s.167-.482.335-.77a2.891 2.891 0 00.216-.938l-.19-.337-.026-.672.288-.239-.046-.865.167-.026.312-.577-.023-.623.049-.288.384-.216.049-.482.335-.361.193.072.312.023.216.288.144-.384.435.023.141.242.433.335.288.144s.721.433.963.554-.288.914-.288.914l.744.072.311-.17.386-.288-.026-.335.153.037.234.058-.049.626-.7.312-.623.77z" transform="translate(-125.314 -248.572)"/><path id="Path_996" data-name="Path 996" d="M187.591 268.2l-.26.435.216.306-.193.542h-.454l-.055.144-.225.032-.568-1.041.343-.182.055-.658a6.844 6.844 0 011.142.421" transform="translate(-145.523 -209.445)"/><path id="Path_997" data-name="Path 997" d="M181.293 315.041l-.04.663-.153-.037.026.335-.386.288-.311.17-.744-.072s.528-.793.289-.914-.963-.554-.963-.554l-.288-.144-.433-.335-.141-.242h.023l.312-.938 1.082-.1.343.182c-.006.09-.006.156-.006.156l.023.767h.7l.312.337-.049.384z" transform="translate(-139.34 -244.948)"/><path id="Path_998" data-name="Path 998" d="M181.525 266.8l.568 1.041-.531.075-.254.2-.288-.182-.162-.467.09-.415-.216-.162.089-.2-.312-.058a.264.264 0 00-.066-.121 1.2 1.2 0 00-.179-.144s.4-.075.4-.164-.09-.5-.09-.5l.337-.242a2.7 2.7 0 00.84.464 1.456 1.456 0 01.176.04l-.055.658z" transform="translate(-140.997 -207.633)"/><path id="Path_999" data-name="Path 999" d="M181.864 381.455v-.009a4.171 4.171 0 00.6-.023.336.336 0 01.346.193c.037.121-.433.2-.548.262-.343.162-.4.09-.758.052-.037-.176-.135-.292.009-.4a.467.467 0 01.349-.081" transform="translate(-141.915 -298.336)"/><path id="Path_1000" data-name="Path 1000" d="M168.991 300.994l-.435-.023-.144.384-.216-.288-.311-.023-.193-.072-.335.361-.288.023-.1-.5-.144-.6.144-.239-.19-.1-.144-.456-.193-.144.084-.349.193-.179-.182-.084.049-.231v-.288l.133-.167v-.493l.035-.228-.144-.266-.086-.262.4.023.721-.5h.433l.046.816.266.144.433.072.528.361.482.072.1.531-.144.1.121.1.023.337.675-.023v.288l.289.311a.486.486 0 01-.049.338 1.141 1.141 0 00-.09.421l-.343-.182-1.082.1-.312.937z" transform="translate(-130.184 -231.743)"/><path id="Path_1001" data-name="Path 1001" d="M162.675 263.253l-.248-.3.164-.144-.2-.361.072-.488.09-.2-.666.055-.378-.378h-.577c-.254 0-.254-.467-.254-.467l.017-.326s-.323-.017-.251-.182.234-.45.234-.45l.329-.352a2.916 2.916 0 01.857.141 2.045 2.045 0 001.682.387 2.789 2.789 0 011.852.735l-.338.242s.09.415.09.5-.4.164-.4.164a1.189 1.189 0 01.179.144.261.261 0 01.066.121.565.565 0 01.023.167c0 .089-.323.179-.323.179l-.288.055-.216.124-.721-.179.326.343.035.306.179-.037.092.127s-.326.2-.343.288a1.214 1.214 0 01-.811.271c-.271-.035-.216-.415-.216-.415z" transform="translate(-125.487 -203.096)"/><path id="Path_1002" data-name="Path 1002" d="M168.395 384.793c.072.554 1.681 1.275.77 1.37a1.252 1.252 0 01-.15.008 2.532 2.532 0 00-.836-.32l-.069-1.509.141-.006a2 2 0 01.144.456" transform="translate(-131.489 -300.615)"/><path id="Path_1003" data-name="Path 1003" d="M154.686 263.242l-.482.167-.488.017v.161l.164.216h-.326v.216l.288.415-.09.539-.1.488-.314-.1.193-.387-.312-.095h-.721l-.242-.433-.167-.1-.239-.288-.268-.017a.216.216 0 00-.19-.127c-.288-.026-.551.023-.577-.1-.017-.084-.389-.317-.6-.441a1.857 1.857 0 00.577-1.48c-.1-.675.626-1.252.865-1.491s.672-.77 1.249-.77h.107l-.329.352s-.161.288-.234.45.251.182.251.182l-.017.326s0 .467.254.467h.577l.378.378.666-.055-.09.2-.072.488.2.361-.164.144z" transform="translate(-117.498 -203.085)"/><path id="Path_1004" data-name="Path 1004" d="M170.579 247.467c.11.061.046.147-.066.2a.48.48 0 01-.366-.032c-.043-.014-.1-.049-.084-.092a.084.084 0 01.052-.052.578.578 0 01.459-.035z" transform="translate(-133.016 -193.526)"/><path id="Path_1005" data-name="Path 1005" d="M164.341 245.646c.032.02.072.052.063.09s-.046.046-.078.055a6.3 6.3 0 01-1.226.167l-.023-.744a3.865 3.865 0 011.263.433" transform="translate(-127.554 -191.797)"/><path id="Path_1006" data-name="Path 1006" d="M151.5 284.2l.144.265-.035.228v.493l-.133.167v.289l-.049.231.182.084-.193.179-.084.349-.193.239-.268.058a1.6 1.6 0 00-.62-.73c-1.78-1.059-2.5-3.461-2.835-3.75s-.289-1.2-.289-1.491a.858.858 0 01.006-.115l.162.069.144.361-.023.384.5.1a1.169 1.169 0 01.288-.479 2.214 2.214 0 01.528-.314c.072 0 .6-.456.528-.551-.046-.064-.032-.251-.1-.378l.268.017.239.289.167.1.242.433h.721l.311.1-.193.386.314.1-.121.1a3.652 3.652 0 00-.865.265 1.456 1.456 0 00-.239.577l-.266.338.266.456.023.361h.24l.193.144.337-.049.216-.144-.026.577.418.026z" transform="translate(-115.075 -218.911)"/><path id="Path_1007" data-name="Path 1007" d="M165.243 312.206l-.049.482-.384.216-.049.288.023.623-.312.577-.167.026.046.865-.288.239-.323-.037c.387-1.728.666-3.819.127-5l.268-.058.193-.239.193.144.144.456.19.1-.144.239.144.6.1.5z" transform="translate(-128.072 -242.617)"/><path id="Path_1008" data-name="Path 1008" d="M159.492 380.539a2.531 2.531 0 01.836.32c-1.007.017-3.222-.678-3.311-2.411-.014-.254-.017-.56-.009-.9l.7.009c-.009.2 0 .378.032.389a1.329 1.329 0 00.262.023l.1.6a.341.341 0 00.312.239 8.658 8.658 0 011.009.167v.055z" transform="translate(-122.803 -295.303)"/><path id="Path_1009" data-name="Path 1009" d="M158.838 335.22l.19.337a2.89 2.89 0 01-.216.938c-.167.288-.361.433-.335.77s.167.767.023.888a6.929 6.929 0 00-.216 1.61l-.239.121.144.41.19.144-.1.361.167.144-.118.216.072.239-.121.6a4.054 4.054 0 01-.193.531c-.144.335-.167.767-.262.839a1.183 1.183 0 00-.1.525l-.7-.009a35.182 35.182 0 01.92-7.318 29.73 29.73 0 00.542-2.057l.323.037z" transform="translate(-122.821 -261.643)"/><path id="Path_1010" data-name="Path 1010" d="M149.2 277.485c.066.127.052.314.1.378.072.095-.456.551-.528.551a2.214 2.214 0 00-.528.314 1.168 1.168 0 00-.288.479l-.5-.1.023-.384-.144-.36-.161-.069c.017-.363.133-1.11.473-1.327a1.276 1.276 0 00.193-.153c.21.124.583.358.6.441.026.121.288.072.577.1a.216.216 0 01.19.127" transform="translate(-115.105 -216.518)"/><path id="Path_1011" data-name="Path 1011" d="M146.274 263.876l-.34.577c-.182-.288-.038-.629-.361-.646a.613.613 0 00-.487.162s.072.666-.4.306a5.1 5.1 0 00-.663-.427l.141-.375a1.434 1.434 0 001.1.046 1.264 1.264 0 011.009.358" transform="translate(-112.651 -206.079)"/><path id="Path_1012" data-name="Path 1012" d="M159.327 244.868a3.418 3.418 0 01.456.043l.023.744a5.959 5.959 0 01-.935-.029c-.035-.1.078-.2.185-.21s.216.017.323-.006.2-.144.144-.234a.6.6 0 01-.257-.032.208.208 0 01-.13-.2c.012-.086.124-.15.19-.1z" transform="translate(-124.258 -191.495)"/><path id="Path_1013" data-name="Path 1013" d="M145.433 239.916a.145.145 0 01-.061.185.4.4 0 01-.208.052 3.727 3.727 0 01-.762-.041.38.38 0 01-.222-.089c-.072-.072-.078-.19-.135-.28-.124-.188-.4-.15-.623-.188a2.12 2.12 0 01-.632-.288.837.837 0 00-.666-.113c-.153.055-.357.167-.438.029-.058-.1.043-.225.153-.26s.234-.02.343-.061c.176-.066.3-.268.49-.271s.337.234.537.291a1.148 1.148 0 00.372-.006 1.592 1.592 0 01.9.366c.294.2.588.4.885.606a.216.216 0 01.069.066" transform="translate(-110.809 -186.618)"/><path id="Path_1014" data-name="Path 1014" d="M152.5 247.767a.624.624 0 01-.646-.147l.006-.055a.36.36 0 01.64.2" transform="translate(-118.772 -193.532)"/><path id="Path_1015" data-name="Path 1015" d="M139.889 261.349l-.141.375c-.2-.107-.363-.187-.49-.259-.251-.144-.611-.124-.611-.323a.82.82 0 00-.089-.332l.522-.052.216.144.222-.11a.556.556 0 00.283.51c.029.017.061.032.089.046" transform="translate(-108.374 -203.956)"/><path id="Path_1016" data-name="Path 1016" d="M138.289 254.058a1.514 1.514 0 01.006.617 5.184 5.184 0 00-.084.877l-.222.11-.216-.144-.522.052a.591.591 0 00-.234-.28.27.27 0 01-.13-.216l.092-.519.193-.046.19-.049.265-.337.216.072z" transform="translate(-107.068 -198.715)"/><path id="Path_1017" data-name="Path 1017" d="M135.171 252.45l-.444.135-.216-.072-.265.337-.19.049-.193.046-.092.519a.392.392 0 00-.141-.271.557.557 0 00-.139-.046l-.012-.225-.288-.1-.288-.144.167-.361-.009-.164.34-.107a.182.182 0 00.135.043c.271 0 .975-.182 1.246-.037a.627.627 0 01.389.392" transform="translate(-103.951 -197.107)"/><path id="Path_1018" data-name="Path 1018" d="M96.179 225.552c.378 0 1.154-.216 1.027.107-.1.257-.366.735-.493 1.111l-.245-.046-.312.239h-.531l-.167.242.482.433-.17.167-.239.072h-.337l-.049.335c-.338-.3-.681-.744-1-.64-.4.127-2.867-.144-3.571-.992s-.089-.848-.361-1.263-2.469-3.152-2.775-3.675-.831-.453-.415.268 1.5 2.507 1.641 2.651.288.686-.271.144-.632-1.209-.937-1.243-.828-.453-.793-.56.378-.127.323-.234a13.238 13.238 0 00-1.061-1.757l.833-.1 1.2.528 1.275.121-.049-.239.7.023.19.239a1.711 1.711 0 01.41.386c.1.167.41.7.577.577a1.389 1.389 0 00.312-.386h.337l1.01 1.54.611.13a.125.125 0 01-.017.075 3.076 3.076 0 00-.144 1.46c.127.34.326 1.136.649 1.315a1.8 1.8 0 001.387.11c.308-.2.669-.381.669-.652s-.072-.485.306-.485" transform="translate(-67.205 -172.71)"/><path id="Path_1019" data-name="Path 1019" d="M132.381 255.369l.012.225c-.208-.052-.571-.1-.894-.179l.306-.286.288.144z" transform="translate(-102.853 -199.554)"/><path id="Path_1020" data-name="Path 1020" d="M133.213 247.954l.245.046a1.314 1.314 0 00-.066.277c-.026.291-.084.516.009.609l-.34.107-.014-.222-.144-.577z" transform="translate(-103.951 -193.941)"/><path id="Path_1021" data-name="Path 1021" d="M129.425 249.852l.009.164-.167.361-.306.286a1.678 1.678 0 01-.464-.173 1.536 1.536 0 01-.242-.187l.049-.335h.337l.239-.072.17-.167-.482-.433.167-.242h.531l.144.577z" transform="translate(-100.316 -194.801)"/><path id="Path_1022" data-name="Path 1022" d="M186.336 179.417a1.2 1.2 0 01.144.842c-.1.193-.5-.1-.77-.072s-.239-.1-.266-.312-.361.023-.793.1a.466.466 0 01-.577-.311 7.934 7.934 0 01.937-1.875s.361-.193.5-.144-.289.672-.289.912.482.17.819.17.167.5.288.7" transform="translate(-143.973 -138.938)"/><path id="Path_1023" data-name="Path 1023" d="M76.269 122.142c.262.19.937.623.6 1.033s-1.131 1.226-1.658 1.249-1.636-.216-2.114.121-1.4.937-1.324 1.009a.152.152 0 00.107.032l-.046.412s-.337.615-.384.687a3.242 3.242 0 00-.156.444.8.8 0 01-.182.023c-.1 0-.144.17-.144.17H69.73a1.176 1.176 0 01-.337.239c-.13.035-.384.482-.384.482l-.842.023.049.372-1.021.456a.939.939 0 01-.384.049c-.133-.035-.075-.266-.075-.266s.182-.216.254-.288.072-.516.072-.516l-.133-.756-.384-.277-.156-.265-.193-.084-1.4-1-.375.182-.179.023-.433-.133-.182.121-.167-.2-.144.121-.216-.265h-.611l-.11-.4-.144.182-10.274.037-.075.467-.5-.138a1.121 1.121 0 00-.332-.421c-.45-.34-1.3-.761-1.177-.906s.528.046.288-.41-.649-1.082-.987-1.61a2.97 2.97 0 00-.176-.254l.32-.479.182-.577-.759-.363-.721-1.367-.433-.433-.144-.433-.47.107v.288l-.357.289-.038-.289-.4-.395-.11-.508-.433.288-.188-.055-.173-.052.066-8.37a.686.686 0 00.277.095c.559.072 1.188.831 1.783.525a10.116 10.116 0 011.569-.885c.56-.161.577-.216.721-.124s.381.069.415-.127.127-.542.323-.11.343 1.209.577.793.4-.9.56-.413.271.5.4.251.594-.037.848.127a6.512 6.512 0 001.009.557c.45.2.79.11 1.116.309a1.9 1.9 0 01.415.294c.064.081.055.161-.089.245-.309.182-.669.488-.11.488s1.532-.4 1.73-.182.612.721.7.271-.271-.539-.11-.684.759-.632.937-.378a1.238 1.238 0 001.03.773c.79.144 1.171.237 1.387.127s.089-.632.361-.611a4.851 4.851 0 01.5.014c.15.023.268.086.277.254.02.343.28 1.151.271.776-.012-.56-.061-.629.488-.883a.733.733 0 00.072-1.009.365.365 0 00-.064-.052l.8-.092c.289.072.415.035.415.4s.055.992.2.649.107-1.082.433-.756a.806.806 0 01.306.865c-.037.45.234 1.206.54.721s.4-1.191.525-1.226-.271-.542-.161-.721a.905.905 0 01.672-.355.616.616 0 01.5.265 1.021 1.021 0 01.144 1.134c-.055.271.56.758.271 1.174a2.076 2.076 0 01-.831.773.849.849 0 01-.756 0c-.288-.09-.254-.127-.2.2a.85.85 0 01-.089.519.434.434 0 01-.219.219c-.179.055-.251.11-.612-.089s-.594-.2-.271-.035a2.969 2.969 0 00.7.323c.127 0 .271-.055.127.216s-.236.811-.632.811-.306.2-.5.271-.433-.035-.343.072.343.251.127.47a2.212 2.212 0 00-.56.378 4.484 4.484 0 00-.738 1.442c-.09.45-.251.738.144 1.278a6.765 6.765 0 002.218 1.805c.684.251 1.947.34 2.054.9s.5 2.2.9 2.181.666-1.062.343-1.549-.271-.522.251-.831a1.288 1.288 0 00.343-1.837c-.5-.632-.127-.669-.055-1.315s-.162-.759-.144-1.191-.055-1.171.522-.937.831-.144 1.263.2.666.9 1.044 1.044.236.216.271.7.162 1.136.687 1.027.865-1.009 1.009-1.171.2-.049.2-.049c.314.7.747 1.563 1.009 2.14s.675 1.393 1.01 1.537.337.41.6.6" transform="translate(-35.42 -85.026)"/><path id="Path_1024" data-name="Path 1024" d="M170.341 184.768c.144.1.649.361.072.675s-1.056.623-1.226.721-.744.623-.793.361.026-.6.242-.7.456-.5.095-.288a6.026 6.026 0 01-.761.317l-.115-.389h-.17l-.023-.854-.156-.118-.156.069-.193-.1.046-.412a.948.948 0 00.5-.2c.262-.193 1.2-.5 1.2-.361s-.023.479-.046.793-.121.479.144.551.407.288.6.314.6-.482.744-.386" transform="translate(-130.744 -143.496)"/><path id="Path_1025" data-name="Path 1025" d="M176.5 181.923a.18.18 0 01-.009.144c-.058.107-.208.118-.326.1a1 1 0 01-.588-.369c-.043-.058-.023-.069-.09-.1.006-.043 0-.11.046-.107.113 0 .225 0 .337.006a.317.317 0 01.107.017.551.551 0 01.092.075c.133.1.366.081.43.237" transform="translate(-137.258 -142.032)"/><path id="Path_1026" data-name="Path 1026" d="M132.369 9.551c1.586.361 1.442 1.442 1.009 2.308a28.5 28.5 0 01-2.235 2.956s-2.307 2.452-2.019 3.1-.865 2.235-1.442 2.668-.288 1.586-.361 2.091-1.586.5-2.6.216-1.37.5-1.3 1.154 1.37.072 2.74 0 .721 1.37.649 1.875c-.026.179-.528.213-1.194.17a15.426 15.426 0 01-3.349-.6.4.4 0 01-.251-.337c-.063-.439.288-1.139-.254-1.682-.721-.721-1.01-.865-1.01-1.37s1.01.433 1.731.577 1.226-.937 1.586-1.514-.433-1.082-1.514-1.37-1.009-1.226-1.442-2.019-.216-2.091-.072-3.173 1.154-.793 1.37.072c.153.611 1.1 1.113 2.166 1.255a4.348 4.348 0 001.367-.029c1.514-.288.5-.937-.793-.649a2.076 2.076 0 01-.539.055c-.851-.029-1.1-.721-1.407-1.209a3.621 3.621 0 01-.361-1.875c0-.5 3.822-2.452 4.9-2.956.889-.415 3.029-.072 4.615.288" transform="translate(-94.453 -7.096)"/><path id="Path_1027" data-name="Path 1027" d="M142.01 97.564c1.659 1.8-.144 1.731-.721 1.082s-.649.5-.072 1.514.361 2.019-.288 2.235-1.659-2.235-3.75-1.8c-.363.075-.542.052-.591-.04-.173-.323 1.249-1.5 2.033-2.339 1.009-1.082-1.226-2.668-1.731-3.1s-1.128-.156-2.31-.213h-.069a2.532 2.532 0 01-2.019-1.3c-.433-.5.216-2.524.577-3.173a1.545 1.545 0 01.433.072c.216.072.577.5.649.144.035-.173.222-.3.528-.3a2.585 2.585 0 011.347.513 4.912 4.912 0 011.37 1.082c.577.577 1.875 1.8 2.6 2.38s.361 1.442 2.019 3.245" transform="translate(-103.518 -70.664)"/><path id="Path_1028" data-name="Path 1028" d="M154.38 119.125a.57.57 0 01.144.568.812.812 0 01-.355.664.244.244 0 01-.251-.046l-.242-.213a1.108 1.108 0 01-.009-.758.523.523 0 01.713-.213" transform="translate(-120.143 -93.119)"/><path id="Path_1029" data-name="Path 1029" d="M139.366 131.9c.182.43-.147.479-.326.479-.216 0-.649-.144-.793.216s-.938 0-1.226-.5c-.265-.464.2-.926.3-1.5a.294.294 0 01.023-.072.278.278 0 01.167-.138l.084-.026a.315.315 0 01.366.115c.522.938.874.615 1.226 1.116a1.5 1.5 0 01.182.314" transform="translate(-107.11 -101.946)"/><path id="Path_1030" data-name="Path 1030" d="M124.046 88.56c.268.037.539-.251.234.649s-.164.992-.632 1.01-.649-.179-.56.072a.784.784 0 01-.035.721c-.086.182-.211.193-.211.245l-.268-.035a4.5 4.5 0 00-.055-.79 2.494 2.494 0 01.029-.519c.107-.733.035-1.5.58-1.514h.014a3.151 3.151 0 01.9.162" transform="translate(-95.828 -69.142)"/><path id="Path_1031" data-name="Path 1031" d="M123.232 104.144l-.8.092c-.329-.245-.836-.2-.836-.923a8.467 8.467 0 01.234-1.765c.012-.069.02-.13.026-.188l.268.035c0 .037.058.1.228.242a2.307 2.307 0 01.81 1.569c-.09.4-.216.865.072.937" transform="translate(-95.106 -79.281)"/><path id="Path_1032" data-name="Path 1032" d="M122.261 79.734c.075.43-.014.565-.164.565a1.758 1.758 0 01-.629-.3c-.335-.19-.239-.672.193-1.1 0 0 .337-.384.577.721.009.041.017.078.023.115" transform="translate(-94.85 -61.661)"/><path id="Path_1033" data-name="Path 1033" d="M117.725 112.621c.182.352.063.5-.182.586a.276.276 0 01-.13.012 2.527 2.527 0 01-.8-.453c-.095-.063-.118-.118-.1-.167.023-.069.127-.13.225-.193.173-.107.11-.467.19-.684 0 0 .162-.092.335.153a6.523 6.523 0 01.459.747" transform="translate(-91.131 -87.371)"/><path id="Path_1034" data-name="Path 1034" d="M118.646 54.806a.683.683 0 01-.193 1.3c-.577 0-.528-1.154-.672-1.488 0 0 .193-.242.865.19" transform="translate(-92.124 -42.665)"/><path id="Path_1035" data-name="Path 1035" d="M113.3 90.075a.462.462 0 01.153.363 2.7 2.7 0 01-.681 1.321c-.384.479-.626-.1-1.1-.819-.289-.43-.473-.6-.473-.724 0-.084.086-.141.28-.237.387-.193.274-.355.167-.637a.276.276 0 01.136-.343c.251-.124.6-.637 1.044-.606.672.049.046 1.3.479 1.682" transform="translate(-86.976 -69.137)"/><path id="Path_1036" data-name="Path 1036" d="M110.193 71.544c.433-.144.675.433.675 1.54s-.819.911-1.058.623-.288-.433-.721-.433-.337-1.1-.577-1.586c0 0 .337.049.433.193s.816-.193 1.249-.337" transform="translate(-84.874 -55.942)"/><path id="Path_1037" data-name="Path 1037" d="M107.277 49.824a2.383 2.383 0 01.144 1.636c-.1.433-.672-.384-1.586-.77s-.239-.672-.239-1.056-.433-.482-.626-.963c0 0-.1-.623 1.108-.1a4.066 4.066 0 011.2 1.249" transform="translate(-82.102 -37.828)"/><path id="Path_1038" data-name="Path 1038" d="M114.426 115.29a.057.057 0 01.006.049.085.085 0 01-.006.029 1.628 1.628 0 01-.107.2.5.5 0 01-.058.135.161.161 0 01-.124.049c-.216 0-.1-.286-.049-.415a.235.235 0 00.012-.029.1.1 0 01.026-.046.114.114 0 01.055-.02.472.472 0 01.19.017.1.1 0 01.055.032" transform="translate(-89.177 -90.136)"/><path id="Path_1039" data-name="Path 1039" d="M89.888 95.614c.124.262.135.433.075.537-.182.329-1.044.04-1.373.04a12.477 12.477 0 00-2.379.865.761.761 0 01-.938-.248 10.552 10.552 0 00-.793-1.05c-.577-.5.072-.577 1.009-.793s.144-.5-.433-.5-1.154.072-1.226-.216.144-.721-.144-.793-.217-.793.072-1.3a5.12 5.12 0 01.937-.721c.5-.288 1.3.361 1.875.793s.721-.577 1.514-1.3c.479-.435.562.337.588 1.194a13.4 13.4 0 00.061 1.474c.144.793.649.937 1.154 2.019" transform="translate(-65.313 -71.022)"/><path id="Path_1040" data-name="Path 1040" d="M88.768 71.531c.5.577.793.937.649 1.659s-.865.649-1.586.865-1.514.577-1.586.288-.216-.577-1.154-.649-.144-1.01.288-1.947c0 0 .5-.216.649.072s.865.721 1.3.144.938-1.009 1.442-.433" transform="translate(-66.212 -55.736)"/><path id="Path_1041" data-name="Path 1041" d="M93.843 54.225c.274.107.464.47.288.7a.726.726 0 01-.643.173.98.98 0 01-.776-.323.212.212 0 01.038-.251l.231-.254a1.429 1.429 0 01.862-.046" transform="translate(-72.496 -42.373)"/><path id="Path_1042" data-name="Path 1042" d="M93.858 60.53c.5.167-.433 1.154-.914 1.154s-.577-.914-.338-1.009a1.447 1.447 0 011.252-.144" transform="translate(-72.334 -47.282)"/><path id="Path_1043" data-name="Path 1043" d="M78.844 64.9s2.38-.865.649 1.154c-.358.418-1.442 1.226-2.019.938s.5-1.586 1.37-2.091" transform="translate(-60.47 -50.615)"/><path id="Path_1044" data-name="Path 1044" d="M75.5 87.623c1.514.577-.361 1.37-.865 1.586s-.433 1.154-1.01 1.875-.937-.361-1.3-.937c-.271-.433-.014-1.676.1-2.394a.626.626 0 01.6-.528 6.647 6.647 0 012.469.4" transform="translate(-56.48 -68.223)"/><path id="Path_1045" data-name="Path 1045" d="M46.831 151.032l.037.288-.268.046a11.739 11.739 0 00-1-.649l.1-.355.188.055.433-.288.11.508z" transform="translate(-35.668 -117.426)"/><path id="Path_1046" data-name="Path 1046" d="M164.747 189.089l.115.389a4.329 4.329 0 00-1.111.5l-.568-.568s.049-.17.144-.17a.8.8 0 00.182-.023 3.244 3.244 0 01.156-.444c.046-.072.384-.686.384-.686l.193.095.156-.069.156.118.023.854z" transform="translate(-127.637 -147.118)"/><path id="Path_1047" data-name="Path 1047" d="M92.872 185.613l.568.568a.089.089 0 00-.026.043c-.049.216-.242.384-.1.6s.314.433-.262.626-.819.167-.986.528a5.6 5.6 0 01-.4.986c-.162.234-.213.288-.323.216s-.234-.288-.11.144.453.811-.2 1.261-1.552 1.009-1.569 1.191a1.458 1.458 0 00-.035 1.047c.2.646.522 1.909.179 1.892s-.632-.793-.721-1.047-.144-.989-.612-.972a11.082 11.082 0 00-1.84-.072c-.271.124-.216.306-.848.216a2.031 2.031 0 00-1.892.539.947.947 0 00-.254.955l-.611-.13-1.009-1.54h-.331a1.389 1.389 0 01-.312.386c-.167.118-.482-.41-.577-.577a1.708 1.708 0 00-.41-.387l-.19-.239-.7-.023.049.239-1.275-.121-1.2-.528-.834.1a1.065 1.065 0 00-.092-.1c-.357-.343-1.009-.649-1.171-.865a8.372 8.372 0 01-1.261-2.417 16.816 16.816 0 010-3.5 3.36 3.36 0 00-.228-.859l.5.138.075-.467 10.274-.037.144-.182.11.4H85l.216.265.144-.121.167.2.182-.121.433.133.179-.023.375-.182 1.4 1 .193.084.156.265.384.277.133.756s0 .444-.072.516-.254.288-.254.288-.058.231.075.265a.935.935 0 00.384-.049l1.021-.456-.049-.372.842-.023s.254-.447.384-.482a1.175 1.175 0 00.338-.239z" transform="translate(-57.325 -143.317)"/><path id="Path_1048" data-name="Path 1048" d="M53.338 155.055l-.182.577-.32.479a28.889 28.889 0 00-1.964-2.368 5.8 5.8 0 00-.686-.554l.268-.046.358-.288v-.288l.47-.107.144.433.433.433.721 1.367z" transform="translate(-39.253 -119.248)"/><path id="Path_1049" data-name="Path 1049" d="M10.037 115.646l-.1.355a3.087 3.087 0 00-.79-.358c-.5-.1-1.226-.554-1.465-.482s-.361.482-.361.554a4.043 4.043 0 01-.987.528c-.216.072-.288-.1-.312-.337s-.386-.335-.6.072.386 0 0 .6a6.273 6.273 0 01-2.235 2.065c-1.1.6-1.659 1.107-1.921 1.058s-.433-.193.072-.5a16.46 16.46 0 001.754-.986 2.027 2.027 0 00.7-1.082c0-.239-.026-.312-.433-.335s-.626-.121-.865-.026-.216-.311-.337-.623-.649-.193-.77-.193-1.009-.987-.672-1.635.6-1.177 1.009-1.177.889-.121.794-.672-1.131-.242-1.443-.242c0 0-.493.049-.539-.3a.6.6 0 00-.387-.528c-.156-.072-.265-.216.133-.433s.9-.626 1.058-.66.349-.015.384.107-.193.421 0 .421.828-.072.7-.326a2.377 2.377 0 00-.7-.646c-.11-.061-.239-.338-.361-.508s-.649-.467-.709-.6a1.789 1.789 0 010-.577c.043-.1.006-.046.332-.066a.821.821 0 00.738-.557c.2-.4.343-.813.687-.975s1.1-.611 1.549-.776.684.037 1.154.164.9.577 1.425.5a8.246 8.246 0 011.566.271c.525.037.542.182 1.047.055.4-.1.485.248.787.427l-.066 8.371z" transform="translate(0 -82.71)"/></g></g></g></svg>