<svg id="Group_517" data-name="Group 517" xmlns="http://www.w3.org/2000/svg" viewBox="0 0 100 100"><defs><clipPath id="clip-path"><circle id="Ellipse_55" data-name="Ellipse 55" cx="50" cy="50" r="50" fill="#fff" stroke="#707070" stroke-width="1"/></clipPath></defs><circle id="Ellipse_54" data-name="Ellipse 54" cx="50" cy="50" r="50" fill="#f7e7e5"/><g id="Mask_Group_28" data-name="Mask Group 28" clip-path="url(#clip-path)"><g id="Group_532" data-name="Group 532" transform="translate(10.09 24.119)"><g id="Group_533" data-name="Group 533" fill="#be0000"><path id="Path_986" data-name="Path 986" d="M107.084 49.094c1.595.153.754 1.986-.353 2.779-.974.7-1.232 2.235-1.8 3.228-.516.917-1.471.086-1.308-.2 1.394-2.588-2.674-1.509-.764-3.9.764-.945.44-2.788-1.709-5.969-.7-1.05.678-.066.678-.066a1.379 1.379 0 011.366.726 12.435 12.435 0 01.984 2.359c.315 1.279 1.308.878 2.9 1.041" transform="translate(-28.148 -12.421)"/><path id="Path_987" data-name="Path 987" d="M99.107 58.172c.64.162.315 1.747.162 2.865S97.2 63.109 96.4 64.694s-1.279 2.712-3.5 3.189-1.595-2.549-1.117-3.027 2.387-2.865 3.667-3.028c.84-.1 1.194-1.385 1.432-2.664a1.454 1.454 0 011.928-1.079c.105.029.211.067.3.086" transform="translate(-25.461 -16.171)"/><path id="Path_988" data-name="Path 988" d="M48.1 18.529c.793 1.346 2.311 5.329.793 8.509s-3.18 6.608-3.495 8.117-.4 2-2.149 2.311a29.71 29.71 0 01-5.49.878 7.993 7.993 0 01-6.445-4.144c-1.432-2.7-1.279-3.658-2.072-3.017s-1.595 3.017-2.789.391-4.536-5.252-9.072-2.865-3.581 2.311-5.567 2.549-3.581 0-5.329 1.194-4.385-.163-3.985-1.27.477-5.014-1.27-8.681S.04 19.4.278 17.889s-.238-2.626 1.271-3.418A45.711 45.711 0 017.918 12c1.824-.554 3.257-1.747 3.18-2.865s-.076-1.585.878-1.824 2.865-1.91 3.9-2.712a2 2 0 012.626.086c.478.477 1.118 1.346 1.509.477S21.049 2.371 22.4 1.97s6.847-.63 6.608.239-1.752 2.311-1.437 2.865a23.629 23.629 0 004.851 3.744c.563.076 2.311.477 2.235-1.91A25.44 25.44 0 0135.211.7c.239-.554.859-.831 1.117-.64.917.678.716 3.428 1.671 4.058a6.207 6.207 0 012.148 3.82c.315 1.671 2.148 3.266 3.495 4.7a45.107 45.107 0 014.46 5.892"/><path id="Path_989" data-name="Path 989" d="M57.93 59.383c.325 1.432-1.432 2.712-2.54 2.712-.821 0-.878-1.517-1.356-2.788-.211-.554-.43-1.442.162-1.509.707-.076 1.413.478 1.986.478 1.117 0 1.432-.325 1.747 1.107" transform="translate(-15.004 -16.113)"/></g></g></g></svg>