<svg id="Layer_1" xmlns="http://www.w3.org/2000/svg" viewBox="0 0 148.819 40.48"><defs><style>.cls-1{fill:#be0000}</style></defs><polygon class="cls-1" points="148.8189 39.71044 144.46536 32.17043 140.11226 39.71044 148.8189 39.71044"/><rect class="cls-1" x="34.943" width="6.715" height="6.715"/><path class="cls-1" d="M95.703 13.439a4.107 4.107 0 108.214 0 4.107 4.107 0 00-8.214 0zM15.629 34.207c-5.393 0-9.245-3.963-9.245-9.356 0-5.283 3.852-9.355 9.245-9.355 3.577 0 6.546 1.868 8.092 4.713l5.46-3.152c-2.651-4.595-7.611-7.725-13.552-7.725C6.494 9.332 0 16.376 0 24.852 0 33.655 6.714 40.48 15.629 40.48c5.912 0 10.927-3.128 13.587-7.814l-5.5-3.176c-1.624 2.94-4.75 4.717-8.087 4.717z"/><rect class="cls-1" x="86.356" y="10.104" width="6.395" height="29.607"/><rect class="cls-1" x="35.106" y="10.104" width="6.395" height="29.607"/><path class="cls-1" d="M62.622 40.48c3.964 0 7.232-1.408 9.631-3.747v2.977h6.395V10.104h-6.395v2.958c-2.385-2.317-5.643-3.73-9.631-3.73-9.135 0-15.236 7.044-15.236 15.52 0 8.804 6.32 15.628 15.236 15.628zm.545-24.984c5.37 0 9.397 4.072 9.397 9.355 0 5.613-4.475 9.356-9.397 9.356-5.482 0-9.397-3.963-9.397-9.356 0-5.283 3.915-9.355 9.397-9.355zm52.051 21.237c2.399 2.339 5.667 3.747 9.631 3.747 8.916 0 15.236-6.824 15.236-15.629 0-8.475-6.1-15.519-15.236-15.519-3.988 0-7.245 1.413-9.63 3.73V0h-6.396v39.71h6.395v-2.977zm9.086-21.237c5.482 0 9.398 4.072 9.398 9.355 0 5.393-3.916 9.356-9.398 9.356-4.922 0-9.397-3.743-9.397-9.356 0-5.283 4.027-9.355 9.397-9.355z"/></svg>