<svg id="Group_517" data-name="Group 517" xmlns="http://www.w3.org/2000/svg" xmlns:xlink="http://www.w3.org/1999/xlink" width="100" height="100" viewBox="0 0 100 100">
  <defs>
    <clipPath id="clip-path">
      <circle id="Ellipse_55" data-name="Ellipse 55" cx="50" cy="50" r="50" fill="#fff" stroke="#707070" stroke-width="1"/>
    </clipPath>
  </defs>
  <circle id="Ellipse_54" data-name="Ellipse 54" cx="50" cy="50" r="50" fill="#f7e7e5"/>
  <g id="Mask_Group_28" data-name="Mask Group 28" clip-path="url(#clip-path)">
    <g id="Group_529" data-name="Group 529" transform="translate(1.845 -27.468)">
      <path id="Path_897" data-name="Path 897" d="M213.367,157.313l.477-.047-.218-.212Z" transform="translate(-130.793 -95.552)" fill="#e16956"/>
      <g id="Group_528" data-name="Group 528">
        <g id="Group_530" data-name="Group 530">
          <path id="Path_898" data-name="Path 898" d="M210.046,159.251l.3.088s-.171.389-.518.389,0-.3.218-.477" transform="translate(-128.55 -96.889)" fill="#be0000"/>
          <path id="Path_899" data-name="Path 899" d="M219.005,256.7c-.155.6,1.125.809.41.9a2.381,2.381,0,0,1-.985-.316c-.306-.176-.363-.586-.389-.933,0-.062-.005-.135.042-.177s.145-.015.13.047l.544.192a.377.377,0,0,1,.182.1.218.218,0,0,1,.067.187" transform="translate(-133.636 -155.839)" fill="#be0000"/>
          <path id="Path_900" data-name="Path 900" d="M213.306,253.015c.062.2-.047.518-.13.488s0-.083-.161-.327-1.2-.778-1.234-.938.052-.192.052-.192a5.937,5.937,0,0,1,1.472.97" transform="translate(-129.824 -153.345)" fill="#be0000"/>
          <path id="Path_901" data-name="Path 901" d="M210.6,255.4c.047.093-.042.2-.119.269a3.22,3.22,0,0,1-2.063,1.017c-.353-.005-.783-.218-.747-.571a.5.5,0,0,1,.378-.41,1.24,1.24,0,0,1,.586-.01,1.463,1.463,0,0,0,.518.021.424.424,0,0,0,.347-.347s.269-.316.529-.27a1.194,1.194,0,0,1,.462.2.253.253,0,0,1,.109.1" transform="translate(-127.326 -155.198)" fill="#be0000"/>
          <path id="Path_902" data-name="Path 902" d="M200.46,256.459c.43.43,1.426.907.43.907s-2.157-1.078-2.805-1.514-.7.047-1.343.347a4.333,4.333,0,0,1-1.763.078l-.057-4.3a25.9,25.9,0,0,1,2.987,1.327c.347.3,1.255.991,1.426,1.468a5.8,5.8,0,0,0,1.125,1.685" transform="translate(-119.571 -153.305)" fill="#be0000"/>
          <path id="Path_903" data-name="Path 903" d="M206.634,161.025l.389.042s-1,.736-1.213.648.695-.69.824-.69" transform="translate(-126.176 -97.968)" fill="#be0000"/>
          <path id="Path_904" data-name="Path 904" d="M203.687,163.223l.218.088a2.045,2.045,0,0,1-.648.69c-.347.176.171-.56.43-.778" transform="translate(-124.571 -99.305)" fill="#be0000"/>
          <path id="Path_905" data-name="Path 905" d="M186.605,162.954a.645.645,0,0,1,.005.2c-.047.171-.907.171-1.084.518s-.648.43-.778.3a1.31,1.31,0,0,0-.99,0,15.322,15.322,0,0,0,.518,2.116,2.585,2.585,0,0,1-.825,1.9c-.389.518.13,1.514-.213,1.685a9.366,9.366,0,0,0-2.509,1.037c-.6.56-1.12.56-1.12-.042s-1.473.083-1.732.083a.507.507,0,0,0-.43.518,5.927,5.927,0,0,1-.13,1.3c-.088.565-.648.607-.69.389a5.459,5.459,0,0,0-.13-1.078c-.13-.3-.389-.042-.435-.259s.518-.607.518-.607a3.168,3.168,0,0,0,1-.819c.389-.518,1.384-.477,1.9-.648a1.493,1.493,0,0,0,.99-.908c.13-.389.907-.518,1.472-.607s.778-1.727.778-2.027a2.65,2.65,0,0,1,.3-1c.13-.259-.218-.56-.3-1s.778-.949,1.167-1.25.213-1.343.259-1.773.907.778.907.907c0,.078.363.171.736.233a.979.979,0,0,1,.814.824" transform="translate(-108.096 -97.89)" fill="#be0000"/>
          <path id="Path_906" data-name="Path 906" d="M197.932,142.568c.389,1.125.047.954-.3.824s-.43,1.167-.43,1.685.518,1.3.389,1.25-.565-.259-.565-.083-.472.778-.56.56.3-1.167.171-1.815a3.945,3.945,0,0,1-.083-1.167,26.454,26.454,0,0,0-.047-3.152,3.816,3.816,0,0,1,.695-2.334c.342-.518.259.819.259,2.028a9.873,9.873,0,0,0,.472,2.2" transform="translate(-120.502 -84.095)" fill="#be0000"/>
          <path id="Path_907" data-name="Path 907" d="M181.268,185.791c1.12-.218.949.518.69.648a.979.979,0,0,1-.607.042c-.13,0-.3.218-.3.477s-.56,0-.56,0,.042-.648.3-.778c0,0,.015-.3.477-.389" transform="translate(-110.791 -113.011)" fill="#be0000"/>
          <path id="Path_908" data-name="Path 908" d="M170.689,167.069l.109.078.072.435a8.839,8.839,0,0,0-1.493,1.669,1.276,1.276,0,0,0,.125,1.416l-.353.208-.684.031-.259.42-.934.021a.419.419,0,0,1-.228-.539c.161-.581.26-1.3-.456-1.167l-.067.016.715-.824.488-.161.581-.809.259.322.617.13V167.7l.456-.062.482-.358.129-.519Z" transform="translate(-102.291 -101.456)" fill="#be0000"/>
          <path id="Path_909" data-name="Path 909" d="M171.028,177.37c.358.679,1.1,1.877-.322,2.4s-1.716,1.073-1.623.425.876-2.271.259-2.463a4.909,4.909,0,0,1-.9-.306l.933-.021.259-.42.685-.031.352-.207c.114.207.249.415.358.627" transform="translate(-103.46 -107.531)" fill="#be0000"/>
          <path id="Path_910" data-name="Path 910" d="M164.9,231.41c.13-.042.69.347.648.648a11.861,11.861,0,0,1-.042,1.214c-.088.3-.259-.259-.477-.13s.042.3-.042.6-.259.259-.607.088-.3-.778-.648-.908-.949-.259-1.037.13-.519.389-.43.089.6-.866.861-.866,1,.13,1-.042.56-.435.56-.435Z" transform="translate(-99.696 -140.789)" fill="#be0000"/>
          <path id="Path_911" data-name="Path 911" d="M167.577,225.964a2.007,2.007,0,0,0,.021-.306v-.016a2.893,2.893,0,0,0,.4.1,1.742,1.742,0,0,1-.493,1.784.232.232,0,0,1-.2.083.157.157,0,0,1-.093-.062.629.629,0,0,1-.036-.648c.094-.213.239-.394.322-.612a1.391,1.391,0,0,0,.078-.321" transform="translate(-102.648 -137.281)" fill="#be0000"/>
          <path id="Path_912" data-name="Path 912" d="M167.968,225.614v.016a2.006,2.006,0,0,1-.021.306c-.1-.088-.259-.14-.228-.249s.13-.1.249-.072" transform="translate(-103.018 -137.253)" fill="#be0000"/>
          <path id="Path_913" data-name="Path 913" d="M162.3,220.132c.088.477-1.078.176-.736,0s-.042-.6-.13-.778-.99-.042-1.379.047-.218-.389-.518-.778a1.459,1.459,0,0,1-.177-1.385,4.93,4.93,0,0,0,.28-.99.729.729,0,0,1,.679-.581c.109-.01.228-.015.337-.026.436-.047.436.56.436.99s-.565,1.167-.518,1.473.69.6,1.037.69.6.866.69,1.338" transform="translate(-97.874 -131.195)" fill="#be0000"/>
          <path id="Path_914" data-name="Path 914" d="M164.75,229.361a.279.279,0,0,1,.3-.047,2.292,2.292,0,0,0-.161,1.146.264.264,0,0,1-.378-.13.646.646,0,0,1,.015-.451,1.333,1.333,0,0,0,.109-.446Z" transform="translate(-101.045 -139.502)" fill="#be0000"/>
          <path id="Path_915" data-name="Path 915" d="M163.092,226.315a1.033,1.033,0,0,1-.176,1.53.2.2,0,0,1-.15.036c-.062-.016-.094-.083-.114-.145a2.049,2.049,0,0,1-.171-1.307l.026-.109c.067-.228.42-.171.586-.005" transform="translate(-99.802 -137.602)" fill="#be0000"/>
          <path id="Path_916" data-name="Path 916" d="M161.1,203.728c.218,0-.218.778-.218.949s-.56,1.426-.731,1.384-.259-.648-.306-1.037.435-1,.778-1.255a3.585,3.585,0,0,1,.477-.042" transform="translate(-98.227 -123.949)" fill="#be0000"/>
          <path id="Path_917" data-name="Path 917" d="M156.012,229.546c.119-.047.607-.13.518,0s-1.384,1.426-1.773,1.426.731-1.213,1.255-1.426" transform="translate(-95.086 -139.614)" fill="#be0000"/>
          <path id="Path_918" data-name="Path 918" d="M126.134,148.991c.083.389-.088.435-.088.435l-1.338-.13-.088.342-.607.13-.389.695h-.648l-.861.56-1.084-.171-.389.6.259.736-.518.259a2.6,2.6,0,0,1-.861.778,8.07,8.07,0,0,1-1.644.088s-1.514.778-1.644.778-.171-.435-.171-.435l-.736.176-1.685-.695a17.986,17.986,0,0,1-3.194-.259c-.347-.213-.389-1.3-.389-1.3a1.5,1.5,0,0,1-.907-.389,2.235,2.235,0,0,0-1.732-.342c-.6.083-.6-.13-.342-.954s-.13-.907-.435-1.509-1.167-.518-1.509-.907a.842.842,0,0,1-.094-.752h.005a1.01,1.01,0,0,0,.161-.176l.617-.1L107.836,145l.581.192.031.192s.617-.259.778.135a.892.892,0,0,0,1.068.42c.394-.13.876.259,1.172.291s.482-.679.352-.876-.29-.84.518-1.685l.586.3-.036.223.814.036.679.322a2.194,2.194,0,0,0,.488,1.006c.42.518,1.457.093,2.105-.031a.78.78,0,0,1,.876.518.477.477,0,0,1,.518.259c.13.322.938.518,1.747.518a2.577,2.577,0,0,0,1.981-.778c.451-.518.643-.228.809-.068s.518-.067.97.1c.109.036.223.078.337.114l-.975,1.691.218.389.737-.13.342.259s.13-.389.348-.435a2.2,2.2,0,0,1,1.255,1.037" transform="translate(-64.861 -87.407)" fill="#be0000"/>
          <path id="Path_919" data-name="Path 919" d="M147.708,237.719l-1.6-.1-.716,1.3-.518.581-1.161-.062-.327.259s-.845.259-1.167.062a1.428,1.428,0,0,1-.41-.571,1.459,1.459,0,0,1,.451-.052c.565,0,.824-.259,1.426-.7.358-.254.975-.772,1.6-1.3l.285.218.42-.135-.036-.352-.083-.233c.228-.192.441-.379.627-.534,0,0,.254-.415.389-.389.368.072.259.607,1.125,1,.571.259.125.643-.306,1.006" transform="translate(-87.259 -143.41)" fill="#be0000"/>
          <path id="Path_920" data-name="Path 920" d="M141.442,212.9c.518.088.042.43-.13.907s-1,.3-1.167.088.218-.866.648-1.125a6.145,6.145,0,0,0,.648.13" transform="translate(-86.22 -129.451)" fill="#be0000"/>
          <path id="Path_921" data-name="Path 921" d="M90.333,162.967l-.036-.011-.384.166-.814-.456-1.037-.389-.259-.259-.42.13-.809-.715-.518-.353-.259.011-.425.021-.679-.358-.648-.876.228-.031-.031-1.167v-.617l-.55-.939h-.456l-.55-.389-.529-.591-.539-.28.093-.259.1-.3-.291-.518-.778-.322-.088-.622.15-.026.1-.519.55-.067.13-.29.389-.1.031.228.684.031.094-.42.653-.617h.643l.327-.259.71-.451v-.648l.394-.327-.488-1.556,1.068-.29.549.1-.13-.586.518-1.426,1.1.425s.487,0,.518-.617a3.713,3.713,0,0,0,0-.747l.778-.42-.031-.389.425-.238a.859.859,0,0,0,.254.078.269.269,0,0,0,.155-.083.841.841,0,0,0,.094.752c.342.389,1.208.3,1.509.908s.695.69.435,1.509-.259,1.037.342.954a2.235,2.235,0,0,1,1.732.342,1.5,1.5,0,0,0,.908.389s.042,1.084.389,1.3a17.986,17.986,0,0,0,3.194.259l1.685.7.736-.176s.042.435.171.435,1.644-.778,1.644-.778a8.07,8.07,0,0,0,1.644-.088,2.6,2.6,0,0,0,.861-.778l.518-.259-.259-.736.389-.6,1.084.171.861-.56h.648l.389-.695.607-.13.088-.342,1.338.13s.171-.047.088-.436a2.2,2.2,0,0,0-1.255-1.037c-.218.047-.347.436-.347.436l-.342-.259-.737.129-.218-.389.975-1.69a2.137,2.137,0,0,0,1.058.145c.389-.1.617-.586.549-.716s.291-.778.358-1.068.648-.747.648-.747l-.062-.518s-.394.13-.3-.259.747-.55.939-.55a3.362,3.362,0,0,1,1.882-.031c1.167.29,1.265,1.229,1.394,1.229s.13,1.073.13,1.073l.518.938.161.679.679.1.42.1.456.482.259.1a3.106,3.106,0,0,1,.062.907c-.062.259.617.259,1.037.259a.668.668,0,0,0,.586-.42l1.1-.2v.648s-.456.488-.358.715-.259.809-.555,1.358-.322.488-.643.259-.778.259-.913.389.228.684.228.684l-.093,1.131-.5.15-.441-.311-.13.519-.482.358-.456.062v.617l-.617-.13-.259-.322-.581.809-.487.161-.716.824c-.658.161-1.514.949-1.763.814a.1.1,0,0,1-.047-.052c-.166-.322.871-2.334-.746-1.1s-1.945,2.463-.845,2.266a6.575,6.575,0,0,1,1.084-.093c.855,0,1.524.212.632.871-1.26.944-1.649.876-.809,2.271s2.214,2.878-.228,5.766a9.031,9.031,0,0,1-6.233,3.526c-.161.015-.322.031-.472.042l-.249.015c-.436.031-.737.057-.965.089l-.28-.332-.679-.488.1-.228-.586-.192-.42-.327-.845.555-.482-.161-.2.384-.518-.192-.026.176-.005.052-.42-.13.13.518.1.322-.457-.094v-.358l-.249.223-.43-.031-.259-.228-.161-.518-.394-.518-.125-.482-.747-.1-.067-.228.327-.809.42-.13.031-1.265H97.2l-.487-.742-.176.052-.244.072-.555-.643-.482-.036h-.617l-.487.3-.809.518-.228.55-.015.13-.337-.228-.228-.487-.518.036-.2-.1h-.352l-.612.663-.166-.373Z" transform="translate(-50.049 -85.309)" fill="#be0000"/>
          <path id="Path_922" data-name="Path 922" d="M142.534,210.6l-.052.27-.2.451-.321-.327-.15-.337.249-.016c.15-.011.311-.026.472-.042" transform="translate(-87.259 -128.13)" fill="#be0000"/>
          <path id="Path_923" data-name="Path 923" d="M135.089,220.218c.9,1.338,1.545,2.593-.394,3.982-2.173,1.556-1.618,1.037-2.271-.161l.586-.13.067-.291.612-.036-.062-.482.322-.036.031-.29.425-.031.259-.29.094-.845-.14-.4.176-.052.1-.425-.3-.259.1-.259Z" transform="translate(-81.547 -133.978)" fill="#be0000"/>
          <path id="Path_924" data-name="Path 924" d="M132.955,208.206l.28.332c-.581.083-.612.223-.9.674-.663,1.073-1.011.2.518,2.463.114.166.223.327.332.488l-.394-.005-.291-.125-.29-.135-.037-.451-1.135-1.167-.384-.228-.259-.42.549.13.13-.487-.3-.259.1-.228-.42-.031-.229.1-.321-.161-.13-.55-.2-.036-.285-.374.026-.176.518.192.2-.384.482.161.845-.555.42.327.586.192-.1.228Z" transform="translate(-79.646 -125.922)" fill="#be0000"/>
          <path id="Path_925" data-name="Path 925" d="M130.566,214.216l-.244.078-.425-.067-.161.166.031.291-.42-.13-.166-.254.135-.005.093-.814-.518-.55v-.612l-.643-.716-.487.062-.228.394-.55-.228-.586.259.13-1.328h-.487l-.094-.425-.181-.233.5-.773h-.021l.249-.223v.358l.456.093-.1-.322-.13-.518.42.13.005-.052.285.373.2.036.13.55.322.161.228-.1.42.031-.1.228.3.259-.13.487-.55-.13.259.42.384.228,1.136,1.167.036.451.29.135.291.125-.1.259.3.259-.1.425Z" transform="translate(-77.495 -126.986)" fill="#be0000"/>
          <path id="Path_926" data-name="Path 926" d="M132.861,222.755l.14.4-.094.845-.259.29-.425.031-.031.29-.322.036.062.482-.612.036-.067.291-.586.13a4.746,4.746,0,0,0-.98-1.312l-.15-.633.58-.747,1.359-.057.166.254.42.13-.031-.291.161-.166.425.067Z" transform="translate(-79.791 -135.525)" fill="#be0000"/>
          <path id="Path_927" data-name="Path 927" d="M184.172,250l.057,4.3c-.571-.047-1.12-.119-1.431-.119-.695,0-.648-.607-.088-1,.493-.342-.43-1.338-1.208-1.6s-2.075-.565-2.51-.695-.6-.342-.518-.56.259-.477.218-.648-1.6-.389-1.426-.518a3,3,0,0,1,.736-.259c.56-.13,1.9-.43,1.9.259s.218,1.426.607,1.338a3.408,3.408,0,0,0,1.125-.778,3,3,0,0,1,2.5.259c.011.005.026.011.037.016" transform="translate(-108.82 -151.329)" fill="#be0000"/>
          <path id="Path_928" data-name="Path 928" d="M175.379,252.48c.042.1-.047.213-.14.259a1.026,1.026,0,0,1-.612.031l-.571-.094c-.238-.036-.482-.078-.726-.119a.269.269,0,0,1-.156-.052c-.171-.14.068-.415.011-.622l.005-.015a2.4,2.4,0,0,1,2.11.524.25.25,0,0,1,.078.088" transform="translate(-106.302 -153.199)" fill="#be0000"/>
          <path id="Path_929" data-name="Path 929" d="M172.139,244.749a.412.412,0,0,1-.088-.4.431.431,0,0,1,.42-.285.834.834,0,0,1,.353.13,1.122,1.122,0,0,1,.373.285.375.375,0,0,1,.011.441c-.119.135-.342.119-.467.249-.228.244.062.768-.233.923a.316.316,0,0,1-.4-.181.912.912,0,0,1-.041-.488c.026-.223.052-.446.072-.669" transform="translate(-105.644 -148.486)" fill="#be0000"/>
          <path id="Path_930" data-name="Path 930" d="M168.113,262.528c.13.213-1.6.731-1.9,1.078s-.737-.042-.737-.347.436-.472,1.037-.648c0,0,1.472-.3,1.6-.083" transform="translate(-101.655 -159.675)" fill="#be0000"/>
          <path id="Path_931" data-name="Path 931" d="M162.727,245.243c.3.031.565.384.384.612a.6.6,0,0,1-.462.15l-2.541.078a2.428,2.428,0,0,0-.752.109c.011-.488.565-.783,1.053-.8a9.178,9.178,0,0,0,1.462.026,2.614,2.614,0,0,1,.856-.171" transform="translate(-97.933 -149.203)" fill="#be0000"/>
          <path id="Path_932" data-name="Path 932" d="M161.7,260.907c.648-.259.176.43-.13.69s-1.25.088-1.9.088-.389-.306-.047-.477a8.458,8.458,0,0,0,2.074-.3" transform="translate(-97.885 -158.702)" fill="#be0000"/>
          <path id="Path_933" data-name="Path 933" d="M160.171,251.236a.455.455,0,0,1-.321.617.642.642,0,0,1-.664-.358c-.088-.181-.125-.41-.3-.508a.686.686,0,0,0-.285-.067.612.612,0,0,0-.4.073.578.578,0,0,0-.156.487c0,.342,0,.69.005,1.032-.213.171-.555,0-.664-.249-.135-.311-.005-.622-.021-.939a2.408,2.408,0,0,0-.311-.959c-.218-.524-.373-.653.249-.99a5.336,5.336,0,0,1,1.856-.306c.42-.047,1.639.14.892.8a.816.816,0,0,1-.731.14.69.69,0,0,0,.218.814c.208.15.5.187.627.41" transform="translate(-96.419 -151.53)" fill="#be0000"/>
          <path id="Path_934" data-name="Path 934" d="M158.758,263.792c.389.13.472.607.213.648s-.861-.389-.99-.56a1.074,1.074,0,0,1,.778-.088" transform="translate(-97.096 -160.467)" fill="#be0000"/>
          <path id="Path_935" data-name="Path 935" d="M153.731,262.079s1.255-.088,1.084.259-1.084.218-1.773.218.13-.389.69-.477" transform="translate(-93.931 -159.444)" fill="#be0000"/>
          <path id="Path_936" data-name="Path 936" d="M147.349,242.693c.259.13-.171.389-.69.648s-.435.954-.565,1.862-.819.907-1.426.819a9.847,9.847,0,0,0-1.986-.43c-1.208-.088-1.125-.347-1.208-.825a11.305,11.305,0,0,1-.607-1.856c-.026-.472.1-.679.368-.768a1.429,1.429,0,0,0,.41.571c.322.2,1.167-.062,1.167-.062l.327-.259,1.161.062.518-.581.716-1.3,1.6.1a2.191,2.191,0,0,0-.518.508c-.213.43.477,1.379.736,1.509" transform="translate(-86.682 -146.368)" fill="#be0000"/>
          <path id="Path_937" data-name="Path 937" d="M141.771,259.39c.565.306.218.435-.042.435s-1.426-.218-2.292-.218-2.375-.518-3.324-.648-.695-.907-.259-.949a4.592,4.592,0,0,1,1.856.518,1.18,1.18,0,0,0,.477.083c.3,0,.99-.042,1.986-.13s.518.477.171.565.866.042,1.426.342" transform="translate(-83.396 -156.972)" fill="#be0000"/>
          <path id="Path_938" data-name="Path 938" d="M124.953,243.553c.472.389-.389.648-.218,1.555s-1.167.778-1.815.389-2.551-3.453-3.241-4.449a9.487,9.487,0,0,0-1.945-2.162c-.778-.648-.259-.731.13-.731a4.438,4.438,0,0,1,2.593,1.727c.56.726,2.245,1.644,2.375,1.9a2.126,2.126,0,0,0,.866,1.078,5.139,5.139,0,0,1,1.255.69" transform="translate(-72.365 -144.894)" fill="#be0000"/>
          <path id="Path_939" data-name="Path 939" d="M126.337,216.45l-1.358.057-.581.746.15.633a1.555,1.555,0,0,0-.959-.472c-.518,0-.944.425-.912,1.265s-.42,1.265.425,2.2a7.185,7.185,0,0,0,1.281,1.078l-.244.285-.55.192-.067-.55-.389-.1-.352.073a2.322,2.322,0,0,0-.783-1.369c-.29-.15-.176-.529-.114-1.177l.441-.767.13-.845-.2-.871-.581-.809.192-.228.166-.778-.425-.715-.518-.679.228-.1.13-.389v-.451l.518-.327.907-.031.047-.072.182.233.093.425h.488l-.13,1.327.586-.259.549.228.228-.394.488-.062.643.715v.612l.519.55-.094.814Z" transform="translate(-74.652 -129.137)" fill="#be0000"/>
          <path id="Path_940" data-name="Path 940" d="M128.358,240.093l-.134.052.009.152a.57.57,0,0,1-.138-.061c-.618-.359-2.5-1.266-2.5-2.234a5.239,5.239,0,0,0-.19-1.322l.354-.074.389.1.065.549.549-.19.246-.285a1.721,1.721,0,0,1,.661.665c.225.558-.224.847.225,1.5a2.864,2.864,0,0,1,.527,1.2Z" transform="translate(-77.278 -143.952)" fill="#be0000"/>
          <path id="Path_941" data-name="Path 941" d="M118.167,202.435h.021l-.5.773-.047.072-.907.031-.518.327v.451l-.13.389-.228.1.519.679.425.715-.166.778-.192.228.581.809.2.871-.13.845-.441.767a5.447,5.447,0,0,0-.275-2.421c-.747-2.2-.259-2.561-.908-2.007s-1.742,1.136-1.457-.586c.13-.778-1.426-1.815-1.524-2.4a1.361,1.361,0,0,0,.067-.306l.13.047.223-.627.005-.021.223-.228.161-1.1.457.1.389-.809-.068-.389.358-.55v-.2l.679-.518.487.1.067-.42.223-.031.021-.466.176-.052.488.742h.192l-.031,1.265-.42.13-.327.809.068.228.746.1.125.482.394.518.161.518.259.228Z" transform="translate(-69.416 -120.09)" fill="#be0000"/>
          <path id="Path_942" data-name="Path 942" d="M105.9,197.348l.093.213.384.125,1.2.036.55-.1.015-.161.016-.13.228-.549.809-.518.488-.3h.617l.482.036.555.643.244-.072-.021.467-.223.031-.067.42-.488-.1-.679.518v.2l-.358.549.067.389-.389.809-.456-.1-.161,1.1-.223.228-.005.021-.291-.379-.13-.617-.259-.031-.093.291-.358.13-.036-.71.425-.161.451-.518-1.654-.259-.259-.617-.062.192-.518-.451-.228.161-.078.093-.114-.093v-1.255l.358.088Z" transform="translate(-65.089 -119.228)" fill="#de7165"/>
          <path id="Path_943" data-name="Path 943" d="M108.376,204.238l-.223.627-.13-.047c.036-.363-.1-.861-1.265-.441-.291.109-.591.233-.892.374l-.047-1.281h-.327l.13-.876-.581-.094.062-.259.715-.228-.778-.358.244-.3.078-.093.228-.161.519.451.062-.192.26.617,1.654.259-.451.518-.425.161.036.71.358-.13.093-.291.259.031.13.617Z" transform="translate(-64.888 -122.353)" fill="#be0000"/>
          <path id="Path_944" data-name="Path 944" d="M108.956,198.574l-.016.161-.549.1-1.2-.036-.384-.124-.093-.213.612-.664h.352l.2.1.518-.036.228.487Z" transform="translate(-65.903 -120.34)" fill="#be0000"/>
          <path id="Path_945" data-name="Path 945" d="M85.3,190.331l.047,1.281a14.183,14.183,0,0,0-3.775,2.639c-1.037,1.073-2.2,1.265-2.2,2.235a11.685,11.685,0,0,1-.1,2.691c-.192.716-1.395,2.111-1.748,1.654a31.947,31.947,0,0,1-2.66-5.543,25.824,25.824,0,0,1-.482-3.594c0-.3-.1.192-.487.322s-1.509.555-2.562-1.913l-.015-.031.472-.192.124-.259,1.1.062.358-.228-.259-.907-.259-.031L72.789,188l-.358-.068-.031-.29.518-.679.2.13.71-.062.457-.845.223.031.327-.482.031-.358.228.031.13-.42.55-.327-.094-.581.778-.586H75.8l-.062-.352h-.42l-.2-.3-.13-.358h.389l-.322-.643.451-.425-.581-.321-.617-.327.1-.581.29-.13-.016-.161a3.3,3.3,0,0,1,.337-.036c.166,0,.778-.093.778-.093l.228-.259-.093.259.539.28.529.591.55.389h.456l.549.939v.617l.031,1.167-.228.031.648.876.679.358.425-.021-.358.28-.389.456-.062.55,1.748.938.778.161.358-.13.451.487.456-.031.1.291,1.457.129.114.094-.244.3.778.358-.715.228-.062.259.581.093-.13.876Z" transform="translate(-44.37 -109.214)" fill="#de7165"/>
          <path id="Path_946" data-name="Path 946" d="M97.067,195.38v1.255l-1.457-.13-.1-.29-.457.031-.451-.487-.358.13-.778-.161-1.748-.938.062-.55.389-.456.358-.28.259-.011.518.353.809.715.42-.13.259.259,1.037.389.814.456.384-.166Z" transform="translate(-56.783 -117.721)" fill="#be0000"/>
          <path id="Path_947" data-name="Path 947" d="M51.1,147.731l-1.509,1.1-.021.347-.477-.456-.819.026.042-.715-.213-.3-.238-.69-.218.021-.477-.674-1.986.109a10.94,10.94,0,0,0-2.225-1.836l-1.773.565-.036,3.391h-.373s-.607-.907-.819-.975c-.155-.047-.648.249-.9.415-.15-.135-.1-.586-.114-.695-.021-.15-.539-.518-.737-.581s-.43-.887-.56-1.063-.088-.363.192-.28.155-.518.415-.56a1.972,1.972,0,0,0,.819-.2.917.917,0,0,0,.259-.627,1.288,1.288,0,0,0-.3-.518,2.37,2.37,0,0,0-2.173.467l-.747-.467.451-.062-.643-.939H35.3l.031-.586-.389-.062.29-.715-.031-.809.456-.518a3.567,3.567,0,0,0,.71.581c.161.036-.067-.778-.067-.778l.518-.161.036-.322.907-.648.352.031s0,.29.135.228.549-.327.549-.327l.161.259h.518l.42.42.358.617.1-.518.747.586a2.43,2.43,0,0,1,.259-.358,1.512,1.512,0,0,1,.518-.327l.353.3.166-.3s.384-.062.451.067a4.41,4.41,0,0,0,.747.55l.223-.358a2.078,2.078,0,0,0,.845.228c.42,0,.192-.648-.031-.871a1.542,1.542,0,0,0-.617-.327s-.161-.228.13-.42.358-.259.327-.425a1.807,1.807,0,0,1,.062-.55l.778.067-.648-.327.161-.228-.42-.191.259-.452.42.094.425.031.871-.352,1.006-.166.062-.384,1.851-.3.161-.223.321-.358a1.469,1.469,0,0,0,.653.358c.353.062.482-.1.612-.1s.031.358.13.42.036.581.067.876.612-.161.612-.161l.358.353.938-.062a1.075,1.075,0,0,1-.321.259c-.161.062,0,.42,0,.42l.518-.291s.581-.3,1.358-.715.358.036.228.13-.031.358-.031.358.907.845,1.006.939,1.229,2.463,1.229,2.463.42-.482.518-.648.327.488.327.488l.259.13.488.031a.988.988,0,0,1,.612-.192c.457-.031.55.549.55.549l.456.322a1.511,1.511,0,0,0,.518.586c.358.228.747-.327.747-.327a2.662,2.662,0,0,0-.031.3c0,.062.228.192.425.28l-.425.238.031.389-.778.42a3.711,3.711,0,0,1,0,.746c-.031.617-.518.617-.518.617l-1.1-.425-.518,1.426.13.586-.549-.1-1.068.291.488,1.555-.394.327v.648l-.612-.487-2.852-.067-.425-.451-.612.161.062.715-1.457-.358-.13.368Z" transform="translate(-22.24 -81.671)" fill="#be0000"/>
          <path id="Path_948" data-name="Path 948" d="M92.977,233.444c0,.69-.907.347-1.255-.042s-.083-1.343.047-2.074a1,1,0,0,1,.342-.13c.218-.047.259.43.477.731a2.657,2.657,0,0,1,.389,1.514" transform="translate(-56.681 -140.66)" fill="#de7165"/>
          <path id="Path_949" data-name="Path 949" d="M74.357,168.933l.238-.016.166.161.13-.13h.358l.482-.389.259-.161-.259-.358-.259-.228-.617.166h-.322l-.358-.259.617-.457-.176-.15.176-.13.13-.368,1.457.358-.062-.715.612-.161.425.451,2.852.067.612.488-.71.451-.327.259h-.643l-.653.617-.093.42-.685-.031-.031-.228-.389.1-.13.29-.549.067-.1.518-.15.026-.726.135-.482-.031-.2-.228-.223.13-.487-.13-.648.067.031-.358.55-.228Z" transform="translate(-45.755 -101.054)" fill="#be0000"/>
          <path id="Path_950" data-name="Path 950" d="M69.165,184.1l-.778.586.093.581-.549.327-.13.42-.228-.031-.031.358-.327.482-.223-.031-.456.845-.71.062-.2-.13-.518.679.031.29.358.068.067.518.259.031.259.907-.358.228-1.1-.062-.125.259-.472.192c-.747-1.711-1.872-1.182-3.064-1.1-.342.026-.747.047-1.172.052a7.288,7.288,0,0,1,.233-.793c.1-.228.617-.161.809-.259s.067-.488.067-.488h-.358v-.876h-.488l-.721-1.068a3.836,3.836,0,0,0,1.307.358,11.859,11.859,0,0,0,1.555-.161l.612-.456.1-.648.327-.192.488-.036.031-.29.488-.161.451.13.29-.2.036-.907.581-.259-.228-.612.715.192-.1-.518.451-.549-.223-.679.581-.555s.327-.057.6-.093l.016.161-.291.13-.1.581.617.327.581.321-.451.425.322.643H67.7l.13.358.2.3h.42l.062.352Z" transform="translate(-37.079 -109.819)" fill="#de7165"/>
          <path id="Path_951" data-name="Path 951" d="M75.258,173.862l.291.518-.1.3-.581-.036-.518-.13-.586.358-.659.259.021-.866-.259.021.176-.363-.259-.156-.586.368v.285l-.472.125-.026.135c-.021.125-.192.083-.322.083s-.5.28-.607.28-.109-.192-.109-.192l-.041-.011.358-.715-.13-.42-.161-.42-.327-.358.13-.13h.617l.13-.13-.1-.389.42-.031.031-.42.456-.067.42-.192.068.259-.2.192.052.244-.182.015-.549.228-.031.358.648-.068.488.13.223-.13.2.228.482.031.726-.135.088.622Z" transform="translate(-43.789 -104.381)" fill="#be0000"/>
          <path id="Path_952" data-name="Path 952" d="M62.844,178.071l.778.182.042.01s0,.192.109.192.477-.28.607-.28.3.042.322-.083l.026-.135.472-.125v-.285l.586-.368.259.156-.176.363.259-.021-.021.866.658-.259.586-.358.518.13.581.036-.228.259s-.612.093-.778.093a3.3,3.3,0,0,0-.337.036c-.275.036-.6.093-.6.093l-.581.555.223.679-.451.549.1.518-.715-.192.228.612-.581.259-.036.907-.291.2-.451-.13-.487.161-.031.29-.487.036-.327.192-.1.648-.612.456a11.858,11.858,0,0,1-1.555.161,3.839,3.839,0,0,1-1.307-.358l-.021-.031.55-.685-.031-.518-.555-.094-.13-1.784.067-.84.29-.456-.005-.244.653.2.109.192.54-.088.042-.451.975-.451.042-.627h.565l.042-.327Z" transform="translate(-36.789 -107.796)" fill="#be0000"/>
          <path id="Path_953" data-name="Path 953" d="M61.857,164.851l.259.358-.259.161-.482.389h-.358l-.13.13-.166-.161-.238.015-.052-.244.2-.192-.067-.259-.42.192-.456.067-.031.42-.42.031.1.389-.13.13h-.617l-.13.13.327.358.161.42.129.42-.358.715-.778-.181v-.155c0-.322-.238-.43-.477-.54s-1.447-.949-1.985-1.3-.457-.627-.648-1.1-.845-.218-1.037-.238a12.188,12.188,0,0,1-1.488-1.1s-.347.306-.436.41-.28.047-.28.047l-.109.648h-.685l.036-3.391,1.774-.565a10.948,10.948,0,0,1,2.224,1.835l1.986-.109.477.674.218-.021.238.69.213.3-.042.715.819-.026.477.456.021-.347,1.509-1.1.176.15-.617.456.358.259h.322l.617-.166Z" transform="translate(-31.882 -97.863)" fill="#be0000"/>
          <path id="Path_954" data-name="Path 954" d="M47.487,169.24h.685l.109-.648s.2.062.28-.047.435-.41.435-.41a12.188,12.188,0,0,0,1.488,1.1c.192.021.845-.238,1.037.238s.109.752.648,1.1,1.747,1.187,1.986,1.3.477.218.477.539v.155l-.669-.155-.042.327h-.565l-.042.627-.975.451-.042.451-.539.088-.109-.192-.654-.2-.026-.762-.555-.062-.29-.358h-.259l-.062-.389-.291-.062-.425-.166-.679-.13-.13-.259-.321.036-.259.223h-.555l-.518.518-.342.036a2.488,2.488,0,0,0-.119-1.017,5.591,5.591,0,0,0-.648-1.3c-.15-.2-.368-.695.3-.607s.949.021.778-.368-.41-.949-.908-.648c-.14.088-.233.083-.3.026.254-.166.746-.461.9-.415.213.067.82.975.82.975Z" transform="translate(-28.576 -102.294)" fill="#be0000"/>
          <path id="Path_955" data-name="Path 955" d="M31.325,174.728c.254.1.6.389.918.534.005.005.015.005.021.01a.389.389,0,0,0,.244.016c.42-.083.887-.664,1.053-.664.2,0,.062.581.062.581l.259.3a2.728,2.728,0,0,0,.352.15c-.01.306.109.508.534.778a3.8,3.8,0,0,0,2.463.648.653.653,0,0,0,.3-.539l.342-.036.518-.519h.555l.259-.223.322-.036.13.259.679.13.425.166.291.062.062.389h.259l.29.358.555.062.026.762.005.244-.291.457-.067.84.13,1.784.555.093.031.518-.549.685.021.031.721,1.068h.488v.876h.358s.13.389-.068.487-.71.031-.809.26a7.275,7.275,0,0,0-.233.793c-1.338.026-2.847-.072-3.07-.57a.517.517,0,0,0-.176-.208c-.56-.415-2.012-.358-2.126-.472-.13-.13-1.623-.876-1.654-1.2s-.233-1.577-1.229-1.234a1.809,1.809,0,0,0-.373.171l-.5-.85a9.531,9.531,0,0,0-.228-1c-.13-.425-.907-.586-.907-.586l-.2-.617-.42-.29.259-.1.036-.648.259-.321.124-.358-.612-.13-.13-.228-.2-.679-.161-.549-.161-.42s-.228-.876,0-1.037a.27.27,0,0,1,.259.005" transform="translate(-19.819 -106.242)" fill="#de7165"/>
          <path id="Path_961" data-name="Path 961" d="M34.722,169.57a2.444,2.444,0,0,1,.488,1.96c-.073.43-.156.726-.166.954a2.763,2.763,0,0,1-.352-.15l-.26-.3s.135-.581-.062-.581c-.166,0-.633.581-1.053.664l-.047-.731-.394-.228-.062-.384-.259-.3.161-.191-.42-.2.13-.228.451.1.394.228.094-.192-.192-.2-.021-.384.378.125.291.358.42.129Z" transform="translate(-20.629 -103.076)" fill="#be0000"/>
          <path id="Path_965" data-name="Path 965" d="M31.909,173.173a.387.387,0,0,1-.242-.013c-.009,0-.017,0-.022-.013v-.3l-.13-.065-.047-.195h-.233l-.151-.151-.26-.121-.423-.16-.419-.13.03-.748L30,171.268l.268-.1.622-.017.415.194-.16.19.259.3.061.38.393.229Z" transform="translate(-19.221 -104.129)" fill="#be0000"/>
          <path id="Path_966" data-name="Path 966" d="M28.319,167.733l-.1.19-.393-.229-.449-.1-.13.229,0,0-.622.017-.268.1-.51-.38h-.933a.912.912,0,0,0-.307-1.348,7.391,7.391,0,0,1-.614-.437l.233-.09.877.289.549-.03.778.488.195.19.389-.13.453-.06.164.121.259.518.207.073.017.385Z" transform="translate(-15.583 -100.806)" fill="#be0000"/>
          <path id="Path_967" data-name="Path 967" d="M32.8,174.649v.306c-.316-.145-.664-.435-.918-.534l.1-.3.259.119.15.15h.233l.047.2Z" transform="translate(-20.378 -105.935)" fill="#be0000"/>
          <path id="Path_973" data-name="Path 973" d="M223.8,118.852l1.416.544a1.726,1.726,0,0,0-.176.2c-.643.84-1.2,2.105-.871,2.432s1.068,1.747.55,2.074-1.006.42-.908.907.228.809-.327,1.037a1.175,1.175,0,0,0-.9,1.265,5.8,5.8,0,0,1-2.11,2.785c-.29,0-1.457-5.284-.84-6.253s2.95-3.6,3.593-4.377c.166-.191.363-.4.576-.612" transform="translate(-134.497 -72.31)" fill="#be0000"/>
          <path id="Path_974" data-name="Path 974" d="M207.048,48.143c.643.518-.135.975-1.172.975s-2.514-1.026-2.074-1.949c.109-.223.715-.259.975.2s1.618.259,2.271.778" transform="translate(-124.925 -28.6)" fill="#be0000"/>
          <path id="Path_975" data-name="Path 975" d="M193.143,44.557c1.234.716.518,1.883-.518,1.883s-2.2.845-3.5.586c-.876-.176-.923-1.53-.648-2.629a1.1,1.1,0,0,1,1.6-.69c.005.005.01.005.015.01.586.321,1.815.13,3.044.84" transform="translate(-115.562 -26.508)" fill="#be0000"/>
          <path id="Path_976" data-name="Path 976" d="M195.511,58.05a1.237,1.237,0,0,1,.2,1.172,3.132,3.132,0,0,1-2.136-.6c-.072-.041-.155-.1-.166-.181-.015-.1.083-.181.166-.249a1.7,1.7,0,0,0,.622-.985c.062-.088.27-.047.384.031a3.6,3.6,0,0,1,.928.814" transform="translate(-118.651 -34.774)" fill="#be0000"/>
          <path id="Path_977" data-name="Path 977" d="M127.363,17.624c.778,0,1.426,2.531.84,3.308s-3.173,1.426-3.822,1.358.648-3.043,1.623-4.407a3.661,3.661,0,0,1,1.358-.259" transform="translate(-76.548 -10.723)" fill="#be0000"/>
          <path id="Path_978" data-name="Path 978" d="M118.214,10.514c1.234,0,1.3,1.1.975,2.2s-.062,2.2-.518,2.4a7.221,7.221,0,0,1-3.173-.71c-.845-.389-.327-2.66-.068-3.3a9.656,9.656,0,0,1,2.785-.586" transform="translate(-70.967 -6.397)" fill="#be0000"/>
          <path id="Path_979" data-name="Path 979" d="M115.416.011A2.55,2.55,0,0,1,116.583,2.3c-.067,1.229-.778,1.229-1.747,1.815a1.4,1.4,0,0,1-2.074-1.229c-.134-1.037-.306-1.016.928-2.7a10.439,10.439,0,0,1,1.727-.176" transform="translate(-69.527 -0.001)" fill="#be0000"/>
          <path id="Path_980" data-name="Path 980" d="M52.894,37.855c.13-.259,1.944-1.9,1.944-.565s-.518,2.074-2.509,3.028A9.5,9.5,0,0,0,47.1,45.933c-1.078,3.111-1.3,3.588-.949,4.278a18.184,18.184,0,0,0,1.021,1.664.241.241,0,0,1-.161.368c-.742.145-2.064.155-2.245-.176-.218-.389-.259-1.338-.69-1.426s-1.343-.648-.565-1.509a36.676,36.676,0,0,0,3.2-7.088c0-.477,2.375-2.811,3.37-3.023a8.1,8.1,0,0,0,2.811-1.167" transform="translate(-27.269 -22.372)" fill="#be0000"/>
          <path id="Path_981" data-name="Path 981" d="M15.025,85.562l-.208-.072-.259-.518-.161-.125-.456.062-.389.13-.192-.192-.778-.488-.549.031-.876-.291-.233.093a9.766,9.766,0,0,0-1.379-1.1c-.28-.062-.472-.518-.192-1.016A4.927,4.927,0,0,1,10.109,81c.109-.067.628-.327.109-.327a2.5,2.5,0,0,0-.534.067,2.111,2.111,0,0,1,.238-.659c.145-.145.57-.13.793-.13s.181-.2.2-.342-.327-.322-.327-.322l.358-.327-.389-.176.358-.067s.1-.306.114-.374-.244-.078-.358-.078a1.453,1.453,0,0,1-.4-.161l-.441-.358a2.046,2.046,0,0,0-.259.161c-.125.1-.4-.534-.4-.534a1.889,1.889,0,0,1-.5.228c-.135,0-.441-.311-.441-.311l-.244.228-.161-.358L7.8,76.856l-.13.016.016-.389-.679.047-.052-.5h.275l-.353-.472L6.7,75.3l-.322.145-.2.114-.031-.13-.358-.052.005.3-.441.011v-.5H5.183l-.026-.711.627.083.347-.41-.238-.192V73.74l-.43.109L5.5,73.33,5.183,73.3l-.15-.581-.259-.15.125-.327-.213-.213.15-.2.021-.238-.238-.083-.171-.238L4.1,71.49l-.213.109-.026-.368-.41.047-.42-.233-.072-.913-.358.1.1-.617-.2-.2.015-.036.244-.643a5.413,5.413,0,0,1-.2-1.037c.036-.192.518-.617.518-.617l-.125-.254c.373-.15.555-.524.778-.524.291,0,.742,0,.581-.161s-.715-.223-.809-.358a.707.707,0,0,0-.767-.3c.648-.809,2.25-2.826,2.484-3.261.291-.55-.97-1.364-.97-1.364l.353-.482-.291-.327-.031-.778H4.027l-.1-.228.192-.223-.161-.13.068-.778.29-.067s-.747-1.976-.747-2.074S4,55.125,4.027,55s.259-.617,0-.908a2.38,2.38,0,0,0-.747-.487l.1-1a2.454,2.454,0,0,1,.005-.337l.285-.15.161-.488.488-.223v-.425l.259.166h.291l-.016-.316a5.272,5.272,0,0,0,1.861.736,3.339,3.339,0,0,1,2.432,1.1c.938.907,2.494,1.426,2.53,2.3S11.9,56,11.219,56.65s-1.068.938-2.556.259-2.333-1.1-2.531-1.2-.389-.259.031.358,1.265.938,1.3,1.421a14.752,14.752,0,0,0,.228,2.141A2.084,2.084,0,0,0,8.922,60.7c.353.036.778.036.679-.291s-.488-.549-.747-.97-.1-.876.518-.487,2.173.746,1.815.13-.747-.778-.358-1.1,1.364-1.747,2.012-1.426,1.037.42,1.037-.062a3.164,3.164,0,0,0-.171-.783l1.047-.182a.454.454,0,0,0,.192.176c.519.259.26.342,1.338-.954s2.639-2.675,3.676-2.157,1.167.213,1.944.13a8.154,8.154,0,0,0,2.287-.435c.736-.3.348-1.38-.083-1.6s0-.648.908-.259,2.115.518,2.893,1.385,1.385,1.509,1.644,1.509,1.078-.171.259-1.3-1.473-2.463-1.214-3.111A31.855,31.855,0,0,0,29.985,45.5c.389-1.338.518-1.727,1.208-1.555s1.815.43,1.426,2.115.176,1.862.13,2.681-.342,3.718.088,3.718,1.167.389.949-1-.518-4.148.477-4.755,2.333-1.6,2.68-1.379,1.208,1.3,1.638,1.3.737-.347.348-.907S37.591,43.557,37.8,43s3.806-.436,4.107-1.084-1.037-1.3-.259-2.245,1.774-2.292,2.894-2.292a4.123,4.123,0,0,0,2.074-.731,8.485,8.485,0,0,1,2.463-.477c.954-.042,1-.648,1.6-.907s.861-.607,1.037-1.467.69-1.945,1.379-2.162,1.991.43,1.732.736-1.125.99-.736.949,1.727.171,1.815.648,2.292.088,2.722.518,2.245,2.463,1.167,3.759-3.153,3.069-2.894,3.412,1.25.259,2.287.435,3.759.083,4.278.82,2.981,1.727,2.981.778-.259-1.6,1.732-.736,2.2,1.255,1.944,1.9a2,2,0,0,0-.13,1.9c.389.648,1.509,2.852,1.857,1.208s.13-1.945,1.037-1.255,4.06.825,4.278.088-.259-2.292,1.555-2.032,4.107.347,4.667,1a18.057,18.057,0,0,1,1.556,1.9,2.105,2.105,0,0,0,2.375.6c.736-.213,3.111-.13,3.158.736s-.306,2.2,1.078,2.032a6.935,6.935,0,0,1,3.153.083c.435.259,1.037-.389,1.343-.43s2.546-.949,4.278-.3a29.008,29.008,0,0,1,5.056,3.023c1.167.778,1.9,1.125,1.9,1.426s-.171,1.3.13,1.3.545-.549.545-.549a6.155,6.155,0,0,1,1.358.192c.1.161,1.265,1.457,1.265,1.457-.259.425-.518.518-.488.653s-.581.192-.778.482-.55,1.913-.747,1.851-1.877-.715-1.908-1.073-.487-1.037-1.073-.908-1.037-.648-.97-.84-.487-.549-.549-.2.384,1.167-.067,1.623-1.3.876-1.587.679-.845-.29-.617.062.55.456.84.814.2.679.488,1,.648,1.2.358,1.431-1.2-.3-1.623-.1-4.179,2.4-4.21,2.883-.42.939-.975-.13S95.219,66.6,94.7,66.47c-.472-.119-.912-.69-1.478-.166l-1.415-.544a6.555,6.555,0,0,0,1.6-1.949c.3-.84.778-1.685-.1-1.328s-.482.586-1.519,1.846-.975,1.623-1.073,1.1.259-1.721-.581-1.721-2.561,1.654-2.982,2.3.617,1.234-.488,1.328-1.426-.161-3.951-.259-3.469-.291-5.74,2.53S73.9,73.045,75.386,73.3s2.722-.55,2.821.912-.715,6.414-2.883,8.52-2.432,2.53-3.018,2.11c-.259-.187-.737.078-1.224.5l-.073-.435-.109-.078.5-.15L71.5,83.55s-.352-.555-.228-.684.586-.612.913-.389.352.3.643-.26.653-1.135.555-1.358.358-.715.358-.715V79.5l-1.1.2a.668.668,0,0,1-.586.42c-.42,0-1.1,0-1.037-.259a3.122,3.122,0,0,0-.062-.908l-.259-.1-.456-.482-.42-.1-.679-.1-.161-.679-.519-.939s0-1.073-.13-1.073-.228-.939-1.394-1.229a3.362,3.362,0,0,0-1.882.031c-.192,0-.84.161-.939.55s.3.259.3.259l.062.518s-.581.456-.648.747-.42.938-.358,1.068-.161.617-.549.716a2.134,2.134,0,0,1-1.058-.145c-.114-.036-.228-.078-.337-.114-.451-.166-.809.062-.97-.1s-.358-.451-.809.067a2.577,2.577,0,0,1-1.981.778c-.809,0-1.618-.2-1.747-.518a.478.478,0,0,0-.518-.259.78.78,0,0,0-.876-.518c-.648.125-1.685.55-2.105.031a2.2,2.2,0,0,1-.488-1.006l-.679-.322L50.528,76l.036-.223-.586-.3c-.809.845-.648,1.493-.518,1.685s-.062.908-.352.876-.778-.42-1.172-.29a.892.892,0,0,1-1.068-.42c-.161-.394-.778-.135-.778-.135L46.058,77l-.581-.192-2.012,1.457-.617.1a1.02,1.02,0,0,1-.161.177h-.005a.271.271,0,0,1-.155.083.859.859,0,0,1-.254-.078c-.2-.088-.425-.218-.425-.28a2.662,2.662,0,0,1,.031-.3s-.389.555-.747.327a1.507,1.507,0,0,1-.518-.586l-.456-.322s-.094-.581-.55-.55a.992.992,0,0,0-.612.192L38.509,77l-.259-.13s-.228-.648-.327-.488-.518.648-.518.648-1.136-2.364-1.229-2.463-1.006-.939-1.006-.939-.1-.259.031-.358.55-.55-.228-.13-1.359.715-1.359.715l-.518.29s-.161-.358,0-.42a1.073,1.073,0,0,0,.322-.259l-.938.062-.358-.353s-.581.451-.612.161.031-.814-.067-.876,0-.42-.13-.42-.259.161-.612.1a1.468,1.468,0,0,1-.654-.358l-.321.358-.161.223-1.851.3-.062.384-1.006.166-.871.352-.425-.031-.42-.094-.259.451.42.192-.161.228.648.327L24.8,74.57a1.806,1.806,0,0,0-.062.549c.031.166-.036.228-.327.425s-.13.42-.13.42a1.545,1.545,0,0,1,.617.327c.223.223.451.871.031.871a2.08,2.08,0,0,1-.845-.228l-.223.358a4.405,4.405,0,0,1-.747-.549c-.067-.13-.451-.067-.451-.067l-.166.3-.352-.3a1.509,1.509,0,0,0-.518.327,2.43,2.43,0,0,0-.259.358l-.747-.586-.1.518-.358-.617-.42-.42h-.518L19.064,76s-.425.259-.55.327-.135-.228-.135-.228l-.352-.031-.908.648-.036.322-.518.161s.228.814.067.778a3.567,3.567,0,0,1-.71-.581l-.456.518.031.809-.29.715.388.062-.031.586h.617l.643.939-.451.062.746.466-.01.011c-.5.389-1.473,1.1-1.473,1.384s.306.648.327,1.125a2.041,2.041,0,0,0,.451,1.447,1.112,1.112,0,0,1,.181.2l-.482.461-.42-.13-.29-.358Z" transform="translate(-2.503 -19.218)" fill="#be0000"/>
          <path id="Path_982" data-name="Path 982" d="M31.575,85.954c.259.171,1.467,1.125.907,1.426-.461.249-.783.856-.581,1.208l-1.047.182a3.058,3.058,0,0,1-.145-1.3c.13-.824.607-1.685.866-1.514" transform="translate(-19.649 -52.281)" fill="#be0000"/>
          <path id="Path_984" data-name="Path 984" d="M151.389,238.662l-.42.135-.285-.218c.2-.171.4-.342.586-.5l.083.233Z" transform="translate(-92.657 -144.846)" fill="#be0000"/>
          <path id="Path_985" data-name="Path 985" d="M132.8,245.558c0,.13-.056.2-.19.155l-.009-.151.134-.052Z" transform="translate(-81.654 -149.37)" fill="#be0000"/>
        </g>
      </g>
    </g>
  </g>
</svg>
