<?xml version="1.0" encoding="utf-8"?>
<!-- Generator: Adobe Illustrator 23.0.3, SVG Export Plug-In . SVG Version: 6.00 Build 0)  -->
<svg version="1.1" id="Layer_1" xmlns="http://www.w3.org/2000/svg" xmlns:xlink="http://www.w3.org/1999/xlink" x="0px" y="0px"
	 viewBox="0 0 108 108" style="enable-background:new 0 0 108 108;" xml:space="preserve">
<style type="text/css">
	.st0{fill:#F7F3F0;}
	.st1{fill:#ADABA8;}
</style>
<g id="avatar" transform="translate(-971 -496)">
	<circle id="Ellipse_14" class="st0" cx="1025" cy="550" r="54"/>
	<path id="user-solid" class="st1" d="M1024.7,549.8c7.5,0,13.7-6.1,13.7-13.7c0-7.5-6.1-13.7-13.7-13.7c-7.5,0-13.7,6.1-13.7,13.7
		c0,0,0,0,0,0C1011,543.7,1017.1,549.8,1024.7,549.8L1024.7,549.8z M1030.1,554.9h-10.8c-10.2,0-18.5,8.3-18.5,18.5
		c0,2,1.7,3.7,3.7,3.7c0,0,0,0,0,0h40.4c2,0,3.7-1.6,3.7-3.7c0,0,0,0,0,0C1048.6,563.2,1040.3,554.9,1030.1,554.9z"/>
</g>
</svg>
