<?xml version="1.0" encoding="UTF-8"?><svg id="Layer_1" xmlns="http://www.w3.org/2000/svg" viewBox="0 0 148.8189 40.48024"><defs><style>.cls-1{fill:#be0000;}</style></defs><polygon class="cls-1" points="148.8189 39.71044 144.46536 32.17043 140.11226 39.71044 148.8189 39.71044"/><rect class="cls-1" x="34.94274" width="6.71474" height="6.71474"/><path class="cls-1" d="M95.70334,13.43897c0,2.26813,1.83884,4.10686,4.10675,4.10686,2.26834,0,4.10675-1.83873,4.10675-4.10686s-1.83841-4.10675-4.10675-4.10675c-2.26791,0-4.10675,1.83873-4.10675,4.10675Z"/><path class="cls-1" d="M15.62904,34.20661c-5.39312,0-9.24535-3.96229-9.24535-9.35541,0-5.28306,3.85223-9.35541,9.24535-9.35541,3.57672,0,6.54605,1.86798,8.09231,4.71312l5.45903-3.15178c-2.65056-4.59488-7.61054-7.7249-13.55135-7.7249C6.49376,9.33222,0,16.3763,0,24.8512c0,8.80509,6.71388,15.62904,15.62904,15.62904,5.91194,0,10.92693-3.12844,13.58682-7.81449l-5.50071-3.17584c-1.62287,2.94035-4.74983,4.71671-8.0861,4.71671Z"/><rect class="cls-1" x="86.35596" y="10.10364" width="6.39509" height="29.6068"/><rect class="cls-1" x="35.10569" y="10.10364" width="6.39509" height="29.6068"/><path class="cls-1" d="M62.6219,40.48024c3.96412,0,7.23239-1.4087,9.63116-3.74754v2.97774h6.39509V10.10364h-6.39509v2.95835c-2.38529-2.31707-5.6427-3.72976-9.63116-3.72976-9.13528,0-15.23592,7.04407-15.23592,15.51898,0,8.80509,6.32076,15.62904,15.23592,15.62904Zm.54511-24.98445c5.36996,0,9.39744,4.07236,9.39744,9.35541,0,5.61325-4.47499,9.35541-9.39744,9.35541-5.48179,0-9.39733-3.96229-9.39733-9.35541,0-5.28306,3.91554-9.35541,9.39733-9.35541Z"/><path class="cls-1" d="M115.21818,36.7327c2.39883,2.33884,5.6671,3.74754,9.63121,3.74754,8.91516,0,15.23592-6.82395,15.23592-15.62904,0-8.4749-6.10063-15.51898-15.23592-15.51898-3.98841,0-7.24588,1.41269-9.63121,3.72976V0h-6.39509V39.71044h6.39509v-2.97774Zm9.08606-21.23691c5.48179,0,9.39738,4.07236,9.39738,9.35541,0,5.39312-3.91559,9.35541-9.39738,9.35541-4.92245,0-9.39733-3.74216-9.39733-9.35541,0-5.28306,4.02743-9.35541,9.39733-9.35541Z"/></svg>