<svg id="Group_514" data-name="Group 514" xmlns="http://www.w3.org/2000/svg" xmlns:xlink="http://www.w3.org/1999/xlink" width="100" height="100" viewBox="0 0 100 100">
  <defs>
    <clipPath id="clip-path">
      <circle id="Ellipse_55" data-name="Ellipse 55" cx="50" cy="50" r="50" fill="#fff" stroke="#707070" stroke-width="1"/>
    </clipPath>
    <clipPath id="clip-path-2">
      <rect id="Rectangle_188" data-name="Rectangle 188" width="52.297" height="79.202" fill="#be0000"/>
    </clipPath>
  </defs>
  <circle id="Ellipse_54" data-name="Ellipse 54" cx="50" cy="50" r="50" fill="#f7e7e5"/>
  <g id="Mask_Group_28" data-name="Mask Group 28" clip-path="url(#clip-path)">
    <g id="Group_513" data-name="Group 513" transform="translate(26.328 10.398)">
      <g id="Group_513-2" data-name="Group 513" clip-path="url(#clip-path-2)">
        <path id="Path_705" data-name="Path 705" d="M42.308,53.787c2.957-.167,7.122,4,4.373,7.122-2.79,3.124-7.122,5.873-5.206,6.748s6.081.167,2.416,2.624c-3.665,2.419-9.912,4.168-12.828,3.791-2.957-.333-11.287-1.041-11.664.711-.333,1.749-.667,3.831-3.457,3.124s-3.29-.167-4.665.875c-1.416,1.041-4.873,0-3.29-1.375,1.541-1.416,4.832-7.833,7.789-8s8.83-.875,6.958-1.749c-1.916-.875-6.251-.5-7.125-1.208s-4.706-.333-4.873-1.541a4.054,4.054,0,0,1,2.624-4c1.875-.708,3.791-5.039,2.249-5.914-1.582-.875-3.29-4.5-1.372-4.5,1.872,0,6.2,2.082,6.911-.374.711-2.416,1.375-6.04-.5-7.122,0,0-3.334-2.583-2.627-3.083.708-.541,2.793-3.835,1.208-3.835-1.541,0-6.081,1.378-6.581,1.378a3.046,3.046,0,0,1-1.375-3.791c.875-1.919,1.875-5.043.5-5.043s-2.164,2.96-3.29,3.124c-.79.085-1.375-1.416-1.375-2.79s-2-.249-2.457-.708c-.749-.749.708-2.583,2.249-3.624,1.582-1.041-.167-1.623-1.375-1.582-1.456.041-1.582-.708-.293-2.416S7.322,16.592,6.4,16.092c-.915-.541-5.08-2.249-4.039-4.042,1.041-1.831,3.25-3.665,3.124-1.957-.126,1.667.667,1.957,1.416.667C7.7,9.426,8.819,7.1,8.819,7.1,9.86,4.513,7.986,1.015,10.4.681s13.372-1.749,11.79.875C20.65,4.138,16.982,7.8,16.982,8.844s-.333,1.208,3.124.5c3.46-.667,9.041-1.208,8.333,1.416-.708,2.583-5.373,10.038-5.706,12.12-.374,2.082-.875,6.081,1.041,7.122,1.875,1.041,7.955,7.622,8.5,8.333.5.708,4.165,2.082,4.332,2.79.167.667.541,6.414,1.541,7.122,1.082.667.708,2.583,1.416,4.165.667,1.541-.167,1.541,2.749,1.375" transform="translate(4.717 0.001)" fill="#be0000"/>
        <path id="Path_706" data-name="Path 706" d="M10.412,12.553c4.958,7.707.5,6.5-.667,9.415L8.537,21.59H6.788L5.039,17.925,2.082,20.882,0,18.967l.208-2.082L2.79,14.3l2.042-3.665c2.164-.252,4.373.041,5.58,1.916" transform="translate(0 22.657)" fill="#be0000"/>
        <path id="Path_707" data-name="Path 707" d="M6.592,1.457a1.947,1.947,0,0,1-.415,1.208c-.585,1-.5,2.249-.919,3.331a1.036,1.036,0,0,1-.289.5,1.373,1.373,0,0,1-1,.167c-.915-.041-2-.249-2.29-1.082a3,3,0,0,1-.044-.626,5.929,5.929,0,0,1,.333-2.416A2.978,2.978,0,0,1,3.635.875a4.58,4.58,0,0,1,1.5-.126c.582,0,1.331.126,1.456.708" transform="translate(3.487 1.598)" fill="#be0000"/>
        <path id="Path_708" data-name="Path 708" d="M3.753,4.047c.085.834-.793,2-1.123,2.708a1.357,1.357,0,0,1-.5.664.954.954,0,0,1-1.167-.5,3.439,3.439,0,0,1,0-3c.249-.415.708-1.249,1.541-1A2.482,2.482,0,0,1,3.753,4.047" transform="translate(1.327 6.17)" fill="#be0000"/>
      </g>
    </g>
  </g>
</svg>
