<svg id="Group_517" data-name="Group 517" xmlns="http://www.w3.org/2000/svg" xmlns:xlink="http://www.w3.org/1999/xlink" width="100" height="100" viewBox="0 0 100 100">
  <defs>
    <clipPath id="clip-path">
      <circle id="Ellipse_55" data-name="Ellipse 55" cx="50" cy="50" r="50" fill="#fff" stroke="#707070" stroke-width="1"/>
    </clipPath>
  </defs>
  <circle id="Ellipse_54" data-name="Ellipse 54" cx="50" cy="50" r="50" fill="#f7e7e5"/>
  <g id="Mask_Group_28" data-name="Mask Group 28" clip-path="url(#clip-path)">
    <g id="Group_525" data-name="Group 525" transform="translate(5.738 28.734)">
      <g id="Group_526" data-name="Group 526">
        <path id="Path_849" data-name="Path 849" d="M113.4,198.551l.175.4.719.233,2.253.067,1.029-.184.029-.3.029-.243.427-1.029,1.514-.971.913-.554h1.156l.9.068,1.039,1.2.456-.136-.039.874-.417.058-.126.787-.913-.185-1.272.971v.37l-.669,1.029.126.728L120,203.251l-.854-.185-.3,2.068-.417.428-.01.039-.544-.709-.243-1.155-.485-.059-.174.544-.67.243-.068-1.33.8-.3.845-.971-3.1-.485-.485-1.156-.117.359-.971-.845-.427.3-.146.174-.213-.174v-2.349l.669.165Z" transform="translate(-33.472 -178.075)" fill="#be0000"/>
        <path id="Path_852" data-name="Path 852" d="M104.546,199.773l.087,2.4a26.575,26.575,0,0,0-7.068,4.942c-1.942,2.01-4.127,2.369-4.127,4.185a21.88,21.88,0,0,1-.184,5.039c-.359,1.34-2.612,3.952-3.273,3.1s-4.427-8.068-4.98-10.379a48.337,48.337,0,0,1-.9-6.728c0-.553-.184.359-.912.6s-2.826,1.039-4.8-3.583l-.029-.058.884-.359.232-.485,2.069.117.669-.427-.485-1.7-.485-.058-.126-.971-.669-.127-.059-.543.971-1.272.369.243,1.33-.117.855-1.582.417.058.612-.9.059-.67.427.059.243-.787,1.029-.612-.175-1.087,1.457-1.1H86.759l-.117-.66h-.786l-.369-.554-.243-.67h.728l-.6-1.2.845-.8-1.087-.6-1.156-.612.185-1.087.543-.243-.029-.3a6.174,6.174,0,0,1,.631-.068c.311,0,1.456-.174,1.456-.174l.427-.485-.175.485,1.01.524.99,1.106,1.029.728H90.9l1.029,1.758v1.156l.058,2.184-.427.059,1.214,1.64,1.271.67.8-.039-.67.524-.728.854-.117,1.029,3.272,1.757,1.456.3.669-.243.845.912.855-.058.184.544,2.728.242.213.175-.456.554,1.456.669-1.34.427-.117.485,1.087.175-.243,1.641Z" transform="translate(-24.388 -173.684)" fill="#be0000"/>
        <path id="Path_855" data-name="Path 855" d="M101.265,235.4c0,1.292-1.7.65-2.349-.078s-.155-2.514.087-3.883a1.862,1.862,0,0,1,.641-.243c.408-.088.485.806.893,1.369a4.975,4.975,0,0,1,.728,2.835" transform="translate(-29.786 -187.471)" fill="#be0000"/>
        <path id="Path_857" data-name="Path 857" d="M84.786,187.231l-1.456,1.1.174,1.087-1.029.612-.243.787-.427-.059-.058.67-.612.9-.417-.058-.854,1.582-1.33.117-.369-.243L77.193,195l.059.543.67.127.126.971.485.058.485,1.7-.67.427-2.068-.117-.233.485-.884.359c-1.4-3.2-3.5-2.214-5.738-2.068-.641.048-1.4.087-2.195.1a13.592,13.592,0,0,1,.437-1.486c.184-.427,1.156-.3,1.515-.485s.126-.913.126-.913h-.67v-1.64h-.913l-1.349-2a7.183,7.183,0,0,0,2.447.67,22.2,22.2,0,0,0,2.912-.3l1.145-.854.185-1.214.612-.359.913-.068.058-.543.913-.3.845.243.543-.369.068-1.7,1.087-.485-.427-1.146,1.34.359-.185-.971.845-1.029-.417-1.272,1.087-1.039s.612-.106,1.126-.174l.029.3-.543.243-.185,1.087,1.156.612,1.087.6-.845.8.6,1.2h-.728l.243.67.369.554h.787l.117.66Z" transform="translate(-21.191 -173.949)" fill="#be0000"/>
        <path id="Path_858" data-name="Path 858" d="M86.573,175.866l.544.971-.185.554-1.087-.068-.971-.243-1.1.67-1.233.485.039-1.621-.485.039.33-.68-.485-.292-1.1.69v.534l-.884.233-.048.252c-.039.233-.359.155-.6.155s-.932.524-1.136.524-.2-.359-.2-.359l-.077-.02.669-1.34-.243-.786-.3-.787-.612-.67.243-.243h1.155l.243-.243-.184-.728.786-.058.059-.787.854-.126.786-.359.127.485-.37.359.1.457-.34.029-1.029.427-.059.67,1.214-.127.913.243.417-.243.37.427.9.058,1.359-.252.165,1.165Z" transform="translate(-24.133 -171.565)" fill="#be0000"/>
        <path id="Path_859" data-name="Path 859" d="M73.367,178.85l1.456.34.078.019s0,.359.2.359.893-.524,1.136-.524.563.078.6-.155l.049-.252.884-.233v-.534l1.1-.689.485.291-.33.68.485-.039-.039,1.621,1.233-.485,1.1-.67.971.243,1.087.068-.427.485s-1.145.175-1.456.175a6.172,6.172,0,0,0-.631.068c-.515.068-1.126.174-1.126.174l-1.087,1.039.418,1.272-.845,1.029.184.972-1.34-.359.427,1.145-1.087.485-.068,1.7-.544.369-.845-.243-.912.3-.059.543-.912.068-.612.359-.184,1.214-1.146.854a22.185,22.185,0,0,1-2.912.3,7.188,7.188,0,0,1-2.447-.67l-.039-.058,1.029-1.282-.059-.971-1.038-.175-.243-3.339.126-1.574.543-.854-.01-.456,1.223.378.2.359,1.01-.165.078-.845,1.825-.845.078-1.175h1.058l.078-.612Z" transform="translate(-21.064 -173.063)" fill="#be0000"/>
        <path id="Path_862" data-name="Path 862" d="M38.683,174.818c.476.185,1.126.728,1.719,1,.01.01.029.01.039.019a.729.729,0,0,0,.456.029c.787-.155,1.66-1.243,1.971-1.243.369,0,.117,1.087.117,1.087l.485.554a5.108,5.108,0,0,0,.66.282c-.019.573.2.952,1,1.456,1.417.884,3.845,1.612,4.612,1.214a1.222,1.222,0,0,0,.553-1.01l.641-.067.971-.972h1.039l.485-.417.6-.068.243.485,1.272.243.8.311.544.117.117.728h.485l.543.67,1.039.117.048,1.427.01.456-.544.855-.126,1.573L58.7,187l1.039.174.058.971-1.029,1.282.039.058,1.349,2h.913v1.641h.67s.243.728-.127.912-1.33.059-1.514.486a13.568,13.568,0,0,0-.437,1.485c-2.5.049-5.33-.136-5.748-1.068a.968.968,0,0,0-.33-.389c-1.049-.777-3.767-.669-3.981-.884-.243-.243-3.039-1.64-3.1-2.242s-.437-2.952-2.3-2.311a3.387,3.387,0,0,0-.7.32l-.942-1.592a17.849,17.849,0,0,0-.427-1.874c-.243-.8-1.7-1.1-1.7-1.1l-.37-1.156-.786-.543.485-.185.068-1.214.485-.6.232-.67-1.145-.243-.243-.427-.369-1.272-.3-1.029-.3-.787s-.427-1.641,0-1.942a.5.5,0,0,1,.485.01" transform="translate(-13.624 -172.381)" fill="#be0000"/>
        <path id="Path_863" data-name="Path 863" d="M59.4,205.9c1.33.185,2.67.728.427,3.457a32.363,32.363,0,0,1-6.865,6.2l-1.884-3.729.243-.048,3.039-.9s1.7-2.311,1.514-2.8a2.027,2.027,0,0,0-.689-.708l-.039-.865.37-1.271h.728l-.485-.485.058-.738.787.126.077-.961a5.953,5.953,0,0,1,.292.661A3.034,3.034,0,0,0,59.4,205.9" transform="translate(-17.112 -179.999)" fill="#be0000"/>
        <path id="Path_864" data-name="Path 864" d="M56.6,203.07l-.078.961-.786-.126-.059.738.485.485h-.728l-.369,1.272.039.864a8.05,8.05,0,0,0-.7-.447l-2.612-.3-1.039-1.641.087-.155a2.459,2.459,0,0,0,1.311.282c2-.126,3.524-2,3.883-2.184.252-.126.389-.078.563.252" transform="translate(-17.023 -179.885)" fill="#be0000"/>
        <path id="Path_865" data-name="Path 865" d="M36.533,194.778l.874.068.689.738.825.019c.331.622.865,1.33,1.321,2.117.874,1.515,1.67,3.127,2.874,3.767l-.087.155,1.039,1.641,2.612.3a7.717,7.717,0,0,1,.7.447,2.034,2.034,0,0,1,.689.708c.185.485-1.514,2.8-1.514,2.8l-3.039.9-.243.048-3.815.748-2,1.884-.369-.369-4.427-.37-.185,1.282-.864.291c-.9-1.9-2.282-3.757-3.806-6.427-2.369-4.116-4.126-9.34-5.4-9.224-.2.019-.389.029-.563.029l-.048-1.845.165-.32c.291.369,1.262.4,1.573.4.369,0,.563-.6,1.825-1.126s-.165-1.583-.524-1.9.155-.573,1.369-.767a8.464,8.464,0,0,1,1.34-.136,4.785,4.785,0,0,1,1.893.378,47.659,47.659,0,0,1,5.146,3.6Z" transform="translate(-9.299 -176.651)" fill="#be0000"/>
        <path id="Path_866" data-name="Path 866" d="M46.842,214.983l1.884,3.729a16,16,0,0,1-2.185,1.2c-2.582,1.145-7.6,3.99-9.573,3.087a1.39,1.39,0,0,1-.8-1.2,10.814,10.814,0,0,0-.991-3.35l.865-.291.184-1.282,4.427.369.37.369,2-1.883Z" transform="translate(-12.87 -183.147)" fill="#be0000"/>
        <path id="Path_869" data-name="Path 869" d="M40.131,189.091l.941,1.593-.087.058c-.631-.263-1.543-.66-1.689-.417-.117.213-.612,1-.873,1.427l-1.952-.165a47.588,47.588,0,0,0-5.146-3.6,4.782,4.782,0,0,0-1.893-.378l-.553-2.146c.01,0,.01-.01.019-.01,2.195-1.33,3.1-1.7,3.1-3.088s.068-1.456.554-1.825c.291-.224,1.019-.816,1.553-1.253a1.086,1.086,0,0,1,.505.1,5.9,5.9,0,0,0,1.757.427l.37,1.272.243.427,1.145.243-.233.669-.485.6-.067,1.214-.485.185.786.543.369,1.156s1.456.3,1.7,1.1a17.942,17.942,0,0,1,.427,1.874" transform="translate(-11.189 -173.624)" fill="#be0000"/>
        <path id="Path_870" data-name="Path 870" d="M44.283,196.565l-.825-.019-.69-.738-.873-.067c.262-.427.757-1.214.873-1.428.146-.243,1.059.155,1.689.417-.68.476-.573,1.1-.175,1.835" transform="translate(-14.661 -177.613)" fill="#be0000"/>
        <path id="Path_878" data-name="Path 878" d="M27.538,185.46c-2.155,1.33-2.282,1.5-3.253,1.2-.466-.146-.495-.515-.369-.874a2.035,2.035,0,0,1,.612-.884,1.091,1.091,0,0,0,.059-1.34.889.889,0,0,0-.612-.048,5.251,5.251,0,0,0,.4-2.146l.214-.049.543-.058L24.9,180.11l.972.427a2.812,2.812,0,0,1,2.116-.117c.485.233,1.214-.369,2-.485a20.838,20.838,0,0,1,2.777-.65c-.535.436-1.263,1.029-1.554,1.252-.485.369-.554.427-.554,1.825s-.9,1.758-3.1,3.088c-.01,0-.01.01-.019.01" transform="translate(-9.848 -173.624)" fill="#be0000"/>
        <path id="Path_880" data-name="Path 880" d="M27.049,187.706l.554,2.146a8.472,8.472,0,0,0-1.34.136c-1.214.194-1.738.447-1.368.767s1.777,1.369.524,1.9-1.456,1.126-1.825,1.126c-.31,0-1.282-.029-1.573-.4l.865-1.747.126-2.175-.748-.272c.059-.165.1-.32.136-.466a6.422,6.422,0,0,1,.262-.738l.767.048c-.126.359-.1.728.369.874.971.3,1.1.126,3.253-1.2" transform="translate(-9.359 -175.871)" fill="#be0000"/>
        <path id="Path_882" data-name="Path 882" d="M20.006,204.658l-14.768-.117V194.152l-.2-.2-.282-.689.359-.611-.039-.845.777-1.078c2.6,1.029,4.466,1.573,5.145,1.3a6.607,6.607,0,0,1,4.369-.553,1.5,1.5,0,0,0,1.427-.136c.224.961.515,2.291.535,2.651a.379.379,0,0,0,.087.2l-.165.32.048,1.845c-.884.039-1.311-.136-1.563-.689-.3-.67-1.825-2.369-1.039-.485a25.726,25.726,0,0,0,2.31,4,42.4,42.4,0,0,1,3,5.476" transform="translate(-4.753 -176.676)" fill="#be0000"/>
        <path id="Path_883" data-name="Path 883" d="M24.331,185.1a1.091,1.091,0,0,1-.059,1.34,2.048,2.048,0,0,0-.612.884l-.767-.048c.234-.6.563-1.427.826-2.223a.891.891,0,0,1,.612.048" transform="translate(-9.592 -175.154)" fill="#be0000"/>
        <path id="Path_896" data-name="Path 896" d="M22.785,190l-.127,2.175-.865,1.747a.39.39,0,0,1-.087-.2c-.018-.359-.31-1.689-.533-2.651a2.605,2.605,0,0,0,.864-1.34Z" transform="translate(-9.133 -176.411)" fill="#be0000"/>
      </g>
    </g>
  </g>
</svg>
